<svg xmlns="http://www.w3.org/2000/svg" xmlns:xlink="http://www.w3.org/1999/xlink" width="2000" zoomAndPan="magnify" viewBox="0 0 1500 1499.999933" height="2000" preserveAspectRatio="xMidYMid meet" version="1.0"><defs><g/><clipPath id="c1df2ac18b"><path d="M 419 900 L 430 900 L 430 909.636719 L 419 909.636719 Z M 419 900 " clip-rule="nonzero"/></clipPath><clipPath id="e42a8354fb"><path d="M 263.402344 745 L 274 745 L 274 756 L 263.402344 756 Z M 263.402344 745 " clip-rule="nonzero"/></clipPath><clipPath id="12ec047e86"><path d="M 419 590.136719 L 430 590.136719 L 430 600 L 419 600 Z M 419 590.136719 " clip-rule="nonzero"/></clipPath><clipPath id="56993f2e8d"><path d="M 573 745 L 582.902344 745 L 582.902344 756 L 573 756 Z M 573 745 " clip-rule="nonzero"/></clipPath></defs><rect x="-150" width="1800" fill="#ffffff" y="-149.999993" height="1799.99992" fill-opacity="1"/><rect x="-150" width="1800" fill="#000000" y="-149.999993" height="1799.99992" fill-opacity="1"/><path fill="#ff914d" d="M 429.53125 729.457031 C 429.53125 732.113281 427.382812 734.261719 424.726562 734.261719 C 422.074219 734.261719 419.921875 732.113281 419.921875 729.457031 C 419.921875 726.804688 422.074219 724.652344 424.726562 724.652344 C 427.382812 724.652344 429.53125 726.804688 429.53125 729.457031 " fill-opacity="1" fill-rule="nonzero"/><path fill="#ff914d" d="M 429.53125 667.019531 C 429.53125 669.667969 427.382812 671.820312 424.726562 671.820312 C 422.074219 671.820312 419.921875 669.667969 419.921875 667.019531 C 419.921875 664.363281 422.074219 662.210938 424.726562 662.210938 C 427.382812 662.210938 429.53125 664.363281 429.53125 667.019531 " fill-opacity="1" fill-rule="nonzero"/><path fill="#ff914d" d="M 397.75 673.0625 C 397.75 675.71875 395.601562 677.867188 392.945312 677.867188 C 390.292969 677.867188 388.136719 675.71875 388.136719 673.0625 C 388.136719 670.410156 390.292969 668.253906 392.945312 668.253906 C 395.601562 668.253906 397.75 670.410156 397.75 673.0625 " fill-opacity="1" fill-rule="nonzero"/><path fill="#ff914d" d="M 369.964844 690.738281 C 369.964844 693.390625 367.808594 695.546875 365.15625 695.546875 C 362.5 695.546875 360.347656 693.390625 360.347656 690.738281 C 360.347656 688.082031 362.5 685.929688 365.15625 685.929688 C 367.808594 685.929688 369.964844 688.082031 369.964844 690.738281 " fill-opacity="1" fill-rule="nonzero"/><path fill="#ff914d" d="M 351.980469 718.023438 C 351.980469 720.675781 349.824219 722.828125 347.171875 722.828125 C 344.515625 722.828125 342.363281 720.675781 342.363281 718.023438 C 342.363281 715.367188 344.515625 713.21875 347.171875 713.21875 C 349.824219 713.21875 351.980469 715.367188 351.980469 718.023438 " fill-opacity="1" fill-rule="nonzero"/><path fill="#ff914d" d="M 345.152344 750.308594 C 345.152344 752.964844 343 755.113281 340.351562 755.113281 C 337.695312 755.113281 335.542969 752.964844 335.542969 750.308594 C 335.542969 747.65625 337.695312 745.503906 340.351562 745.503906 C 343 745.503906 345.152344 747.65625 345.152344 750.308594 " fill-opacity="1" fill-rule="nonzero"/><path fill="#ff914d" d="M 351.980469 782.054688 C 351.980469 784.707031 349.824219 786.855469 347.171875 786.855469 C 344.515625 786.855469 342.363281 784.707031 342.363281 782.054688 C 342.363281 779.398438 344.515625 777.246094 347.171875 777.246094 C 349.824219 777.246094 351.980469 779.398438 351.980469 782.054688 " fill-opacity="1" fill-rule="nonzero"/><path fill="#ff914d" d="M 370.230469 809.6875 C 370.230469 812.34375 368.082031 814.496094 365.429688 814.496094 C 362.773438 814.496094 360.621094 812.34375 360.621094 809.6875 C 360.621094 807.03125 362.773438 804.882812 365.429688 804.882812 C 368.082031 804.882812 370.230469 807.03125 370.230469 809.6875 " fill-opacity="1" fill-rule="nonzero"/><path fill="#ff914d" d="M 397.058594 827.367188 C 397.058594 830.015625 394.902344 832.167969 392.25 832.167969 C 389.59375 832.167969 387.441406 830.015625 387.441406 827.367188 C 387.441406 824.707031 389.59375 822.558594 392.25 822.558594 C 394.902344 822.558594 397.058594 824.707031 397.058594 827.367188 " fill-opacity="1" fill-rule="nonzero"/><path fill="#ff914d" d="M 429.53125 833.601562 C 429.53125 836.257812 427.382812 838.410156 424.726562 838.410156 C 422.074219 838.410156 419.921875 836.257812 419.921875 833.601562 C 419.921875 830.949219 422.074219 828.800781 424.726562 828.800781 C 427.382812 828.800781 429.53125 830.949219 429.53125 833.601562 " fill-opacity="1" fill-rule="nonzero"/><path fill="#ff914d" d="M 460.855469 827.367188 C 460.855469 830.015625 458.703125 832.167969 456.046875 832.167969 C 453.390625 832.167969 451.238281 830.015625 451.238281 827.367188 C 451.238281 824.707031 453.390625 822.558594 456.046875 822.558594 C 458.703125 822.558594 460.855469 824.707031 460.855469 827.367188 " fill-opacity="1" fill-rule="nonzero"/><path fill="#ff914d" d="M 474.648438 859.808594 C 474.648438 862.460938 472.5 864.609375 469.84375 864.609375 C 467.1875 864.609375 465.035156 862.460938 465.035156 859.808594 C 465.035156 857.148438 467.1875 855 469.84375 855 C 472.5 855 474.648438 857.148438 474.648438 859.808594 " fill-opacity="1" fill-rule="nonzero"/><path fill="#ff914d" d="M 429.53125 868.910156 C 429.53125 871.566406 427.382812 873.71875 424.726562 873.71875 C 422.074219 873.71875 419.921875 871.566406 419.921875 868.910156 C 419.921875 866.261719 422.074219 864.109375 424.726562 864.109375 C 427.382812 864.109375 429.53125 866.261719 429.53125 868.910156 " fill-opacity="1" fill-rule="nonzero"/><path fill="#ff914d" d="M 383.253906 860.542969 C 383.253906 863.191406 381.105469 865.347656 378.453125 865.347656 C 375.796875 865.347656 373.644531 863.191406 373.644531 860.542969 C 373.644531 857.886719 375.796875 855.734375 378.453125 855.734375 C 381.105469 855.734375 383.253906 857.886719 383.253906 860.542969 " fill-opacity="1" fill-rule="nonzero"/><g clip-path="url(#c1df2ac18b)"><path fill="#ff914d" d="M 429.53125 904.957031 C 429.53125 907.609375 427.382812 909.765625 424.726562 909.765625 C 422.074219 909.765625 419.921875 907.609375 419.921875 904.957031 C 419.921875 902.304688 422.074219 900.152344 424.726562 900.152344 C 427.382812 900.152344 429.53125 902.304688 429.53125 904.957031 " fill-opacity="1" fill-rule="nonzero"/></g><path fill="#ff914d" d="M 369.652344 893.675781 C 369.652344 896.332031 367.5 898.484375 364.84375 898.484375 C 362.191406 898.484375 360.035156 896.332031 360.035156 893.675781 C 360.035156 891.027344 362.191406 888.875 364.84375 888.875 C 367.5 888.875 369.652344 891.027344 369.652344 893.675781 " fill-opacity="1" fill-rule="nonzero"/><path fill="#ff914d" d="M 344.765625 834.960938 C 344.765625 837.613281 342.613281 839.769531 339.964844 839.769531 C 337.308594 839.769531 335.15625 837.613281 335.15625 834.960938 C 335.15625 832.304688 337.308594 830.152344 339.964844 830.152344 C 342.613281 830.152344 344.765625 832.304688 344.765625 834.960938 " fill-opacity="1" fill-rule="nonzero"/><path fill="#ff914d" d="M 318.800781 796.359375 C 318.800781 799.007812 316.648438 801.160156 313.992188 801.160156 C 311.339844 801.160156 309.1875 799.007812 309.1875 796.359375 C 309.1875 793.699219 311.339844 791.550781 313.992188 791.550781 C 316.648438 791.550781 318.800781 793.699219 318.800781 796.359375 " fill-opacity="1" fill-rule="nonzero"/><path fill="#ff914d" d="M 285.15625 809.6875 C 285.15625 812.34375 283.003906 814.496094 280.347656 814.496094 C 277.699219 814.496094 275.546875 812.34375 275.546875 809.6875 C 275.546875 807.03125 277.699219 804.882812 280.347656 804.882812 C 283.003906 804.882812 285.15625 807.03125 285.15625 809.6875 " fill-opacity="1" fill-rule="nonzero"/><g clip-path="url(#e42a8354fb)"><path fill="#ff914d" d="M 273.066406 750.308594 C 273.066406 752.964844 270.910156 755.113281 268.257812 755.113281 C 265.601562 755.113281 263.453125 752.964844 263.453125 750.308594 C 263.453125 747.65625 265.601562 745.503906 268.257812 745.503906 C 270.910156 745.503906 273.066406 747.65625 273.066406 750.308594 " fill-opacity="1" fill-rule="nonzero"/></g><path fill="#ff914d" d="M 309.109375 749.921875 C 309.109375 752.578125 306.957031 754.730469 304.300781 754.730469 C 301.652344 754.730469 299.5 752.578125 299.5 749.921875 C 299.5 747.269531 301.652344 745.113281 304.300781 745.113281 C 306.957031 745.113281 309.109375 747.269531 309.109375 749.921875 " fill-opacity="1" fill-rule="nonzero"/><path fill="#ff914d" d="M 318.800781 703.566406 C 318.800781 706.21875 316.648438 708.371094 313.992188 708.371094 C 311.339844 708.371094 309.1875 706.21875 309.1875 703.566406 C 309.1875 700.910156 311.339844 698.761719 313.992188 698.761719 C 316.648438 698.761719 318.800781 700.910156 318.800781 703.566406 " fill-opacity="1" fill-rule="nonzero"/><path fill="#ff914d" d="M 285.003906 689.925781 C 285.003906 692.578125 282.851562 694.726562 280.195312 694.726562 C 277.539062 694.726562 275.386719 692.578125 275.386719 689.925781 C 275.386719 687.269531 277.539062 685.117188 280.195312 685.117188 C 282.851562 685.117188 285.003906 687.269531 285.003906 689.925781 " fill-opacity="1" fill-rule="nonzero"/><path fill="#ff914d" d="M 318.800781 639.691406 C 318.800781 642.34375 316.648438 644.5 313.992188 644.5 C 311.339844 644.5 309.1875 642.34375 309.1875 639.691406 C 309.1875 637.035156 311.339844 634.886719 313.992188 634.886719 C 316.648438 634.886719 318.800781 637.035156 318.800781 639.691406 " fill-opacity="1" fill-rule="nonzero"/><path fill="#ff914d" d="M 344.226562 665.273438 C 344.226562 667.929688 342.074219 670.078125 339.417969 670.078125 C 336.765625 670.078125 334.609375 667.929688 334.609375 665.273438 C 334.609375 662.617188 336.765625 660.464844 339.417969 660.464844 C 342.074219 660.464844 344.226562 662.617188 344.226562 665.273438 " fill-opacity="1" fill-rule="nonzero"/><path fill="#ff914d" d="M 384.109375 639.691406 C 384.109375 642.34375 381.957031 644.5 379.300781 644.5 C 376.648438 644.5 374.5 642.34375 374.5 639.691406 C 374.5 637.035156 376.648438 634.886719 379.300781 634.886719 C 381.957031 634.886719 384.109375 637.035156 384.109375 639.691406 " fill-opacity="1" fill-rule="nonzero"/><path fill="#ff914d" d="M 369.964844 606.203125 C 369.964844 608.855469 367.808594 611.011719 365.15625 611.011719 C 362.5 611.011719 360.347656 608.855469 360.347656 606.203125 C 360.347656 603.546875 362.5 601.398438 365.15625 601.398438 C 367.808594 601.398438 369.964844 603.546875 369.964844 606.203125 " fill-opacity="1" fill-rule="nonzero"/><g clip-path="url(#12ec047e86)"><path fill="#ff914d" d="M 429.53125 595.042969 C 429.53125 597.691406 427.382812 599.847656 424.726562 599.847656 C 422.074219 599.847656 419.921875 597.691406 419.921875 595.042969 C 419.921875 592.386719 422.074219 590.234375 424.726562 590.234375 C 427.382812 590.234375 429.53125 592.386719 429.53125 595.042969 " fill-opacity="1" fill-rule="nonzero"/></g><path fill="#ff914d" d="M 488.914062 607.863281 C 488.914062 610.519531 486.761719 612.671875 484.109375 612.671875 C 481.449219 612.671875 479.300781 610.519531 479.300781 607.863281 C 479.300781 605.210938 481.449219 603.0625 484.109375 603.0625 C 486.761719 603.0625 488.914062 605.210938 488.914062 607.863281 " fill-opacity="1" fill-rule="nonzero"/><path fill="#ff914d" d="M 429.53125 631.027344 C 429.53125 633.683594 427.382812 635.835938 424.726562 635.835938 C 422.074219 635.835938 419.921875 633.683594 419.921875 631.027344 C 419.921875 628.375 422.074219 626.21875 424.726562 626.21875 C 427.382812 626.21875 429.53125 628.375 429.53125 631.027344 " fill-opacity="1" fill-rule="nonzero"/><path fill="#ff914d" d="M 319.417969 860.542969 C 319.417969 863.191406 317.265625 865.347656 314.617188 865.347656 C 311.960938 865.347656 309.808594 863.191406 309.808594 860.542969 C 309.808594 857.886719 311.960938 855.734375 314.617188 855.734375 C 317.265625 855.734375 319.417969 857.886719 319.417969 860.542969 " fill-opacity="1" fill-rule="nonzero"/><path fill="#ff914d" d="M 488.375 893.410156 C 488.375 896.066406 486.21875 898.210938 483.566406 898.210938 C 480.910156 898.210938 478.757812 896.066406 478.757812 893.410156 C 478.757812 890.753906 480.910156 888.601562 483.566406 888.601562 C 486.21875 888.601562 488.375 890.753906 488.375 893.410156 " fill-opacity="1" fill-rule="nonzero"/><path fill="#ff914d" d="M 487.328125 808.140625 C 487.328125 810.792969 485.171875 812.945312 482.519531 812.945312 C 479.863281 812.945312 477.710938 810.792969 477.710938 808.140625 C 477.710938 805.484375 479.863281 803.332031 482.519531 803.332031 C 485.171875 803.332031 487.328125 805.484375 487.328125 808.140625 " fill-opacity="1" fill-rule="nonzero"/><path fill="#ff914d" d="M 505.621094 782.054688 C 505.621094 784.707031 503.46875 786.855469 500.8125 786.855469 C 498.160156 786.855469 496.003906 784.707031 496.003906 782.054688 C 496.003906 779.398438 498.160156 777.246094 500.8125 777.246094 C 503.46875 777.246094 505.621094 779.398438 505.621094 782.054688 " fill-opacity="1" fill-rule="nonzero"/><path fill="#ff914d" d="M 511.28125 750.308594 C 511.28125 752.964844 509.125 755.113281 506.472656 755.113281 C 503.816406 755.113281 501.664062 752.964844 501.664062 750.308594 C 501.664062 747.65625 503.816406 745.503906 506.472656 745.503906 C 509.125 745.503906 511.28125 747.65625 511.28125 750.308594 " fill-opacity="1" fill-rule="nonzero"/><path fill="#ff914d" d="M 505.078125 718.914062 C 505.078125 721.570312 502.921875 723.722656 500.269531 723.722656 C 497.613281 723.722656 495.464844 721.570312 495.464844 718.914062 C 495.464844 716.261719 497.613281 714.109375 500.269531 714.109375 C 502.921875 714.109375 505.078125 716.261719 505.078125 718.914062 " fill-opacity="1" fill-rule="nonzero"/><path fill="#ff914d" d="M 487.402344 692.09375 C 487.402344 694.75 485.25 696.898438 482.59375 696.898438 C 479.941406 696.898438 477.785156 694.75 477.785156 692.09375 C 477.785156 689.441406 479.941406 687.285156 482.59375 687.285156 C 485.25 687.285156 487.402344 689.441406 487.402344 692.09375 " fill-opacity="1" fill-rule="nonzero"/><path fill="#ff914d" d="M 461.355469 674.027344 C 461.355469 676.683594 459.203125 678.835938 456.546875 678.835938 C 453.894531 678.835938 451.738281 676.683594 451.738281 674.027344 C 451.738281 671.378906 453.894531 669.226562 456.546875 669.226562 C 459.203125 669.226562 461.355469 671.378906 461.355469 674.027344 " fill-opacity="1" fill-rule="nonzero"/><path fill="#ff914d" d="M 474.996094 640.851562 C 474.996094 643.507812 472.847656 645.660156 470.191406 645.660156 C 467.539062 645.660156 465.386719 643.507812 465.386719 640.851562 C 465.386719 638.203125 467.539062 636.050781 470.191406 636.050781 C 472.847656 636.050781 474.996094 638.203125 474.996094 640.851562 " fill-opacity="1" fill-rule="nonzero"/><path fill="#ff914d" d="M 512.816406 667.019531 C 512.816406 669.667969 510.664062 671.820312 508.015625 671.820312 C 505.355469 671.820312 503.207031 669.667969 503.207031 667.019531 C 503.207031 664.363281 505.355469 662.210938 508.015625 662.210938 C 510.664062 662.210938 512.816406 664.363281 512.816406 667.019531 " fill-opacity="1" fill-rule="nonzero"/><path fill="#ff914d" d="M 537.933594 705.347656 C 537.933594 708.003906 535.777344 710.15625 533.128906 710.15625 C 530.472656 710.15625 528.320312 708.003906 528.320312 705.347656 C 528.320312 702.691406 530.472656 700.542969 533.128906 700.542969 C 535.777344 700.542969 537.933594 702.691406 537.933594 705.347656 " fill-opacity="1" fill-rule="nonzero"/><path fill="#ff914d" d="M 547.167969 750.308594 C 547.167969 752.964844 545.011719 755.113281 542.363281 755.113281 C 539.710938 755.113281 537.554688 752.964844 537.554688 750.308594 C 537.554688 747.65625 539.710938 745.503906 542.363281 745.503906 C 545.011719 745.503906 547.167969 747.65625 547.167969 750.308594 " fill-opacity="1" fill-rule="nonzero"/><path fill="#ff914d" d="M 537.933594 795.269531 C 537.933594 797.921875 535.777344 800.078125 533.128906 800.078125 C 530.472656 800.078125 528.320312 797.921875 528.320312 795.269531 C 528.320312 792.613281 530.472656 790.464844 533.128906 790.464844 C 535.777344 790.464844 537.933594 792.613281 537.933594 795.269531 " fill-opacity="1" fill-rule="nonzero"/><path fill="#ff914d" d="M 512.441406 833.367188 C 512.441406 836.027344 510.289062 838.175781 507.632812 838.175781 C 504.976562 838.175781 502.832031 836.027344 502.832031 833.367188 C 502.832031 830.71875 504.976562 828.566406 507.632812 828.566406 C 510.289062 828.566406 512.441406 830.71875 512.441406 833.367188 " fill-opacity="1" fill-rule="nonzero"/><path fill="#ff914d" d="M 537.933594 859.300781 C 537.933594 861.957031 535.777344 864.109375 533.128906 864.109375 C 530.472656 864.109375 528.320312 861.957031 528.320312 859.300781 C 528.320312 856.644531 530.472656 854.496094 533.128906 854.496094 C 535.777344 854.496094 537.933594 856.644531 537.933594 859.300781 " fill-opacity="1" fill-rule="nonzero"/><path fill="#ff914d" d="M 571.421875 809.574219 C 571.421875 812.226562 569.265625 814.378906 566.617188 814.378906 C 563.960938 814.378906 561.808594 812.226562 561.808594 809.574219 C 561.808594 806.917969 563.960938 804.765625 566.617188 804.765625 C 569.265625 804.765625 571.421875 806.917969 571.421875 809.574219 " fill-opacity="1" fill-rule="nonzero"/><g clip-path="url(#56993f2e8d)"><path fill="#ff914d" d="M 583.210938 750.308594 C 583.210938 752.964844 581.0625 755.113281 578.410156 755.113281 C 575.753906 755.113281 573.601562 752.964844 573.601562 750.308594 C 573.601562 747.65625 575.753906 745.503906 578.410156 745.503906 C 581.0625 745.503906 583.210938 747.65625 583.210938 750.308594 " fill-opacity="1" fill-rule="nonzero"/></g><path fill="#ff914d" d="M 571.421875 691.277344 C 571.421875 693.933594 569.265625 696.085938 566.617188 696.085938 C 563.960938 696.085938 561.808594 693.933594 561.808594 691.277344 C 561.808594 688.621094 563.960938 686.472656 566.617188 686.472656 C 569.265625 686.472656 571.421875 688.621094 571.421875 691.277344 " fill-opacity="1" fill-rule="nonzero"/><path fill="#ff914d" d="M 538.402344 641.585938 C 538.402344 644.242188 536.246094 646.394531 533.59375 646.394531 C 530.9375 646.394531 528.785156 644.242188 528.785156 641.585938 C 528.785156 638.933594 530.9375 636.785156 533.59375 636.785156 C 536.246094 636.785156 538.402344 638.933594 538.402344 641.585938 " fill-opacity="1" fill-rule="nonzero"/><path fill="#ff914d" d="M 429.53125 770.386719 C 429.53125 773.042969 427.382812 775.195312 424.726562 775.195312 C 422.074219 775.195312 419.921875 773.042969 419.921875 770.386719 C 419.921875 767.734375 422.074219 765.578125 424.726562 765.578125 C 427.382812 765.578125 429.53125 767.734375 429.53125 770.386719 " fill-opacity="1" fill-rule="nonzero"/><path fill="#ff914d" d="M 407.367188 750.308594 C 407.367188 752.964844 405.210938 755.113281 402.558594 755.113281 C 399.902344 755.113281 397.75 752.964844 397.75 750.308594 C 397.75 747.65625 399.902344 745.503906 402.558594 745.503906 C 405.210938 745.503906 407.367188 747.65625 407.367188 750.308594 " fill-opacity="1" fill-rule="nonzero"/><path fill="#ff914d" d="M 448.605469 750.308594 C 448.605469 752.964844 446.453125 755.113281 443.796875 755.113281 C 441.140625 755.113281 438.996094 752.964844 438.996094 750.308594 C 438.996094 747.65625 441.140625 745.503906 443.796875 745.503906 C 446.453125 745.503906 448.605469 747.65625 448.605469 750.308594 " fill-opacity="1" fill-rule="nonzero"/><path fill="#ff914d" d="M 414.183594 734.960938 C 414.183594 737.613281 412.03125 739.765625 409.378906 739.765625 C 406.726562 739.765625 404.574219 737.613281 404.574219 734.960938 C 404.574219 732.304688 406.726562 730.15625 409.378906 730.15625 C 412.03125 730.15625 414.183594 732.304688 414.183594 734.960938 " fill-opacity="1" fill-rule="nonzero"/><path fill="#ff914d" d="M 443.796875 736.355469 C 443.796875 739.007812 441.644531 741.164062 438.996094 741.164062 C 436.335938 741.164062 434.1875 739.007812 434.1875 736.355469 C 434.1875 733.699219 436.335938 731.550781 438.996094 731.550781 C 441.644531 731.550781 443.796875 733.699219 443.796875 736.355469 " fill-opacity="1" fill-rule="nonzero"/><path fill="#ff914d" d="M 443.796875 764.265625 C 443.796875 766.914062 441.644531 769.070312 438.996094 769.070312 C 436.335938 769.070312 434.1875 766.914062 434.1875 764.265625 C 434.1875 761.605469 436.335938 759.457031 438.996094 759.457031 C 441.644531 759.457031 443.796875 761.605469 443.796875 764.265625 " fill-opacity="1" fill-rule="nonzero"/><path fill="#ff914d" d="M 414.183594 765.578125 C 414.183594 768.234375 412.03125 770.386719 409.378906 770.386719 C 406.726562 770.386719 404.574219 768.234375 404.574219 765.578125 C 404.574219 762.925781 406.726562 760.777344 409.378906 760.777344 C 412.03125 760.777344 414.183594 762.925781 414.183594 765.578125 " fill-opacity="1" fill-rule="nonzero"/><path fill="#ff914d" d="M 410.15625 703.566406 C 410.15625 706.21875 408.003906 708.371094 405.347656 708.371094 C 402.695312 708.371094 400.539062 706.21875 400.539062 703.566406 C 400.539062 700.910156 402.695312 698.761719 405.347656 698.761719 C 408.003906 698.761719 410.15625 700.910156 410.15625 703.566406 " fill-opacity="1" fill-rule="nonzero"/><path fill="#ff914d" d="M 429.53125 700.855469 C 429.53125 703.511719 427.382812 705.65625 424.726562 705.65625 C 422.074219 705.65625 419.921875 703.511719 419.921875 700.855469 C 419.921875 698.199219 422.074219 696.046875 424.726562 696.046875 C 427.382812 696.046875 429.53125 698.199219 429.53125 700.855469 " fill-opacity="1" fill-rule="nonzero"/><path fill="#ff914d" d="M 448.605469 705.347656 C 448.605469 708.003906 446.453125 710.15625 443.796875 710.15625 C 441.140625 710.15625 438.996094 708.003906 438.996094 705.347656 C 438.996094 702.691406 441.140625 700.542969 443.796875 700.542969 C 446.453125 700.542969 448.605469 702.691406 448.605469 705.347656 " fill-opacity="1" fill-rule="nonzero"/><path fill="#ff914d" d="M 463.488281 715.738281 C 463.488281 718.390625 461.335938 720.546875 458.679688 720.546875 C 456.023438 720.546875 453.875 718.390625 453.875 715.738281 C 453.875 713.082031 456.023438 710.929688 458.679688 710.929688 C 461.335938 710.929688 463.488281 713.082031 463.488281 715.738281 " fill-opacity="1" fill-rule="nonzero"/><path fill="#ff914d" d="M 473.992188 731.550781 C 473.992188 734.207031 471.839844 736.355469 469.183594 736.355469 C 466.53125 736.355469 464.375 734.207031 464.375 731.550781 C 464.375 728.898438 466.53125 726.742188 469.183594 726.742188 C 471.839844 726.742188 473.992188 728.898438 473.992188 731.550781 " fill-opacity="1" fill-rule="nonzero"/><path fill="#ff914d" d="M 477.710938 750.308594 C 477.710938 752.964844 475.5625 755.113281 472.902344 755.113281 C 470.253906 755.113281 468.101562 752.964844 468.101562 750.308594 C 468.101562 747.65625 470.253906 745.503906 472.902344 745.503906 C 475.5625 745.503906 477.710938 747.65625 477.710938 750.308594 " fill-opacity="1" fill-rule="nonzero"/><path fill="#ff914d" d="M 473.992188 769.070312 C 473.992188 771.722656 471.839844 773.875 469.183594 773.875 C 466.53125 773.875 464.375 771.722656 464.375 769.070312 C 464.375 766.414062 466.53125 764.265625 469.183594 764.265625 C 471.839844 764.265625 473.992188 766.414062 473.992188 769.070312 " fill-opacity="1" fill-rule="nonzero"/><path fill="#ff914d" d="M 463.488281 784.882812 C 463.488281 787.539062 461.335938 789.6875 458.679688 789.6875 C 456.023438 789.6875 453.875 787.539062 453.875 784.882812 C 453.875 782.226562 456.023438 780.074219 458.679688 780.074219 C 461.335938 780.074219 463.488281 782.226562 463.488281 784.882812 " fill-opacity="1" fill-rule="nonzero"/><path fill="#ff914d" d="M 447.671875 795.269531 C 447.671875 797.921875 445.519531 800.078125 442.863281 800.078125 C 440.214844 800.078125 438.0625 797.921875 438.0625 795.269531 C 438.0625 792.613281 440.214844 790.464844 442.863281 790.464844 C 445.519531 790.464844 447.671875 792.613281 447.671875 795.269531 " fill-opacity="1" fill-rule="nonzero"/><path fill="#ff914d" d="M 429.53125 800.078125 C 429.53125 802.730469 427.382812 804.882812 424.726562 804.882812 C 422.074219 804.882812 419.921875 802.730469 419.921875 800.078125 C 419.921875 797.421875 422.074219 795.269531 424.726562 795.269531 C 427.382812 795.269531 429.53125 797.421875 429.53125 800.078125 " fill-opacity="1" fill-rule="nonzero"/><path fill="#ff914d" d="M 393.71875 714.964844 C 393.71875 717.617188 391.566406 719.765625 388.914062 719.765625 C 386.261719 719.765625 384.109375 717.617188 384.109375 714.964844 C 384.109375 712.308594 386.261719 710.15625 388.914062 710.15625 C 391.566406 710.15625 393.71875 712.308594 393.71875 714.964844 " fill-opacity="1" fill-rule="nonzero"/><path fill="#ff914d" d="M 382.964844 731.027344 C 382.964844 733.683594 380.8125 735.832031 378.15625 735.832031 C 375.507812 735.832031 373.355469 733.683594 373.355469 731.027344 C 373.355469 728.375 375.507812 726.21875 378.15625 726.21875 C 380.8125 726.21875 382.964844 728.375 382.964844 731.027344 " fill-opacity="1" fill-rule="nonzero"/><path fill="#ff914d" d="M 377.867188 750.308594 C 377.867188 752.964844 375.714844 755.113281 373.058594 755.113281 C 370.40625 755.113281 368.257812 752.964844 368.257812 750.308594 C 368.257812 747.65625 370.40625 745.503906 373.058594 745.503906 C 375.714844 745.503906 377.867188 747.65625 377.867188 750.308594 " fill-opacity="1" fill-rule="nonzero"/><path fill="#ff914d" d="M 382.964844 769.070312 C 382.964844 771.722656 380.8125 773.875 378.15625 773.875 C 375.507812 773.875 373.355469 771.722656 373.355469 769.070312 C 373.355469 766.414062 375.507812 764.265625 378.15625 764.265625 C 380.8125 764.265625 382.964844 766.414062 382.964844 769.070312 " fill-opacity="1" fill-rule="nonzero"/><path fill="#ff914d" d="M 410.15625 796.359375 C 410.15625 799.007812 408.003906 801.160156 405.347656 801.160156 C 402.695312 801.160156 400.539062 799.007812 400.539062 796.359375 C 400.539062 793.699219 402.695312 791.550781 405.347656 791.550781 C 408.003906 791.550781 410.15625 793.699219 410.15625 796.359375 " fill-opacity="1" fill-rule="nonzero"/><path fill="#ff914d" d="M 393.71875 785.65625 C 393.71875 788.3125 391.566406 790.464844 388.914062 790.464844 C 386.261719 790.464844 384.109375 788.3125 384.109375 785.65625 C 384.109375 783.003906 386.261719 780.847656 388.914062 780.847656 C 391.566406 780.847656 393.71875 783.003906 393.71875 785.65625 " fill-opacity="1" fill-rule="nonzero"/><g fill="#ffffff" fill-opacity="1"><g transform="translate(663.04163, 721.499918)"><g><path d="M 58.75 -43.4375 C 63.65625 -42.382812 67.59375 -39.945312 70.5625 -36.125 C 73.539062 -32.3125 75.03125 -27.953125 75.03125 -23.046875 C 75.03125 -15.960938 72.554688 -10.347656 67.609375 -6.203125 C 62.671875 -2.066406 55.773438 0 46.921875 0 L 7.484375 0 L 7.484375 -84.6875 L 45.609375 -84.6875 C 54.210938 -84.6875 60.945312 -82.710938 65.8125 -78.765625 C 70.675781 -74.828125 73.109375 -69.484375 73.109375 -62.734375 C 73.109375 -57.742188 71.800781 -53.597656 69.1875 -50.296875 C 66.570312 -47.003906 63.09375 -44.71875 58.75 -43.4375 Z M 28.109375 -50.421875 L 41.625 -50.421875 C 45 -50.421875 47.585938 -51.164062 49.390625 -52.65625 C 51.203125 -54.144531 52.109375 -56.335938 52.109375 -59.234375 C 52.109375 -62.128906 51.203125 -64.335938 49.390625 -65.859375 C 47.585938 -67.390625 45 -68.15625 41.625 -68.15625 L 28.109375 -68.15625 Z M 43.3125 -16.640625 C 46.769531 -16.640625 49.441406 -17.425781 51.328125 -19 C 53.222656 -20.570312 54.171875 -22.84375 54.171875 -25.8125 C 54.171875 -28.789062 53.179688 -31.125 51.203125 -32.8125 C 49.234375 -34.5 46.519531 -35.34375 43.0625 -35.34375 L 28.109375 -35.34375 L 28.109375 -16.640625 Z M 43.3125 -16.640625 "/></g></g></g><g fill="#ffffff" fill-opacity="1"><g transform="translate(757.739583, 721.499918)"><g><path d="M 28.109375 -56.09375 C 30.523438 -59.789062 33.539062 -62.707031 37.15625 -64.84375 C 40.78125 -66.976562 44.800781 -68.046875 49.21875 -68.046875 L 49.21875 -46.203125 L 43.546875 -46.203125 C 38.398438 -46.203125 34.539062 -45.09375 31.96875 -42.875 C 29.394531 -40.664062 28.109375 -36.789062 28.109375 -31.25 L 28.109375 0 L 7.484375 0 L 7.484375 -67.3125 L 28.109375 -67.3125 Z M 28.109375 -56.09375 "/></g></g></g><g fill="#ffffff" fill-opacity="1"><g transform="translate(824.571345, 721.499918)"><g><path d="M 70.9375 -34.75 C 70.9375 -32.8125 70.816406 -30.800781 70.578125 -28.71875 L 23.890625 -28.71875 C 24.210938 -24.53125 25.554688 -21.328125 27.921875 -19.109375 C 30.296875 -16.898438 33.210938 -15.796875 36.671875 -15.796875 C 41.816406 -15.796875 45.394531 -17.96875 47.40625 -22.3125 L 69.375 -22.3125 C 68.238281 -17.894531 66.203125 -13.914062 63.265625 -10.375 C 60.335938 -6.832031 56.660156 -4.054688 52.234375 -2.046875 C 47.816406 -0.0351562 42.875 0.96875 37.40625 0.96875 C 30.800781 0.96875 24.925781 -0.4375 19.78125 -3.25 C 14.632812 -6.070312 10.613281 -10.09375 7.71875 -15.3125 C 4.820312 -20.539062 3.375 -26.65625 3.375 -33.65625 C 3.375 -40.65625 4.800781 -46.769531 7.65625 -52 C 10.507812 -57.226562 14.507812 -61.25 19.65625 -64.0625 C 24.8125 -66.875 30.726562 -68.28125 37.40625 -68.28125 C 43.914062 -68.28125 49.703125 -66.910156 54.765625 -64.171875 C 59.835938 -61.441406 63.800781 -57.539062 66.65625 -52.46875 C 69.507812 -47.40625 70.9375 -41.5 70.9375 -34.75 Z M 49.828125 -40.171875 C 49.828125 -43.710938 48.617188 -46.523438 46.203125 -48.609375 C 43.796875 -50.703125 40.78125 -51.75 37.15625 -51.75 C 33.695312 -51.75 30.78125 -50.742188 28.40625 -48.734375 C 26.039062 -46.722656 24.570312 -43.867188 24 -40.171875 Z M 49.828125 -40.171875 "/></g></g></g><g fill="#ffffff" fill-opacity="1"><g transform="translate(914.082091, 721.499918)"><g><path d="M 3.375 -33.78125 C 3.375 -40.695312 4.679688 -46.769531 7.296875 -52 C 9.910156 -57.226562 13.46875 -61.25 17.96875 -64.0625 C 22.476562 -66.875 27.507812 -68.28125 33.0625 -68.28125 C 37.800781 -68.28125 41.957031 -67.3125 45.53125 -65.375 C 49.113281 -63.445312 51.875 -60.914062 53.8125 -57.78125 L 53.8125 -67.3125 L 74.4375 -67.3125 L 74.4375 0 L 53.8125 0 L 53.8125 -9.53125 C 51.800781 -6.394531 49.003906 -3.859375 45.421875 -1.921875 C 41.835938 0.00390625 37.675781 0.96875 32.9375 0.96875 C 27.46875 0.96875 22.476562 -0.457031 17.96875 -3.3125 C 13.46875 -6.164062 9.910156 -10.226562 7.296875 -15.5 C 4.679688 -20.769531 3.375 -26.863281 3.375 -33.78125 Z M 53.8125 -33.65625 C 53.8125 -38.800781 52.378906 -42.863281 49.515625 -45.84375 C 46.660156 -48.820312 43.1875 -50.3125 39.09375 -50.3125 C 34.988281 -50.3125 31.507812 -48.84375 28.65625 -45.90625 C 25.800781 -42.96875 24.375 -38.925781 24.375 -33.78125 C 24.375 -28.632812 25.800781 -24.550781 28.65625 -21.53125 C 31.507812 -18.519531 34.988281 -17.015625 39.09375 -17.015625 C 43.1875 -17.015625 46.660156 -18.5 49.515625 -21.46875 C 52.378906 -24.445312 53.8125 -28.507812 53.8125 -33.65625 Z M 53.8125 -33.65625 "/></g></g></g><g fill="#ffffff" fill-opacity="1"><g transform="translate(1011.192709, 721.499918)"><g><path d="M 45 -17.5 L 45 0 L 34.5 0 C 27.019531 0 21.1875 -1.828125 17 -5.484375 C 12.820312 -9.148438 10.734375 -15.125 10.734375 -23.40625 L 10.734375 -50.1875 L 2.53125 -50.1875 L 2.53125 -67.3125 L 10.734375 -67.3125 L 10.734375 -83.71875 L 31.359375 -83.71875 L 31.359375 -67.3125 L 44.875 -67.3125 L 44.875 -50.1875 L 31.359375 -50.1875 L 31.359375 -23.15625 C 31.359375 -21.144531 31.84375 -19.695312 32.8125 -18.8125 C 33.78125 -17.9375 35.390625 -17.5 37.640625 -17.5 Z M 45 -17.5 "/></g></g></g><g fill="#ffffff" fill-opacity="1"><g transform="translate(1075.37053, 721.499918)"><g><path d="M 48.859375 -68.046875 C 56.578125 -68.046875 62.769531 -65.488281 67.4375 -60.375 C 72.101562 -55.269531 74.4375 -48.253906 74.4375 -39.328125 L 74.4375 0 L 53.921875 0 L 53.921875 -36.546875 C 53.921875 -41.054688 52.753906 -44.554688 50.421875 -47.046875 C 48.085938 -49.546875 44.953125 -50.796875 41.015625 -50.796875 C 37.078125 -50.796875 33.941406 -49.546875 31.609375 -47.046875 C 29.273438 -44.554688 28.109375 -41.054688 28.109375 -36.546875 L 28.109375 0 L 7.484375 0 L 7.484375 -89.28125 L 28.109375 -89.28125 L 28.109375 -58.265625 C 30.203125 -61.242188 33.054688 -63.617188 36.671875 -65.390625 C 40.296875 -67.160156 44.359375 -68.046875 48.859375 -68.046875 Z M 48.859375 -68.046875 "/></g></g></g><g fill="#ffffff" fill-opacity="1"><g transform="translate(662.068974, 860.999906)"><g><path d="M 83.234375 0 L 62.609375 0 L 28.109375 -52.234375 L 28.109375 0 L 7.484375 0 L 7.484375 -84.6875 L 28.109375 -84.6875 L 62.609375 -32.21875 L 62.609375 -84.6875 L 83.234375 -84.6875 Z M 83.234375 0 "/></g></g></g><g fill="#ffffff" fill-opacity="1"><g transform="translate(767.985785, 860.999906)"><g><path d="M 38.125 0.96875 C 31.53125 0.96875 25.597656 -0.4375 20.328125 -3.25 C 15.054688 -6.070312 10.910156 -10.09375 7.890625 -15.3125 C 4.878906 -20.539062 3.375 -26.65625 3.375 -33.65625 C 3.375 -40.570312 4.898438 -46.664062 7.953125 -51.9375 C 11.015625 -57.207031 15.195312 -61.25 20.5 -64.0625 C 25.8125 -66.875 31.765625 -68.28125 38.359375 -68.28125 C 44.953125 -68.28125 50.90625 -66.875 56.21875 -64.0625 C 61.53125 -61.25 65.710938 -57.207031 68.765625 -51.9375 C 71.816406 -46.664062 73.34375 -40.570312 73.34375 -33.65625 C 73.34375 -26.738281 71.796875 -20.644531 68.703125 -15.375 C 65.609375 -10.113281 61.382812 -6.070312 56.03125 -3.25 C 50.6875 -0.4375 44.71875 0.96875 38.125 0.96875 Z M 38.125 -16.890625 C 42.0625 -16.890625 45.414062 -18.335938 48.1875 -21.234375 C 50.96875 -24.128906 52.359375 -28.269531 52.359375 -33.65625 C 52.359375 -39.039062 51.007812 -43.179688 48.3125 -46.078125 C 45.625 -48.972656 42.304688 -50.421875 38.359375 -50.421875 C 34.335938 -50.421875 31 -48.992188 28.34375 -46.140625 C 25.695312 -43.285156 24.375 -39.125 24.375 -33.65625 C 24.375 -28.269531 25.679688 -24.128906 28.296875 -21.234375 C 30.910156 -18.335938 34.1875 -16.890625 38.125 -16.890625 Z M 38.125 -16.890625 "/></g></g></g><g fill="#ffffff" fill-opacity="1"><g transform="translate(860.029819, 860.999906)"><g><path d="M 17.859375 -74.3125 C 14.234375 -74.3125 11.273438 -75.375 8.984375 -77.5 C 6.691406 -79.632812 5.546875 -82.269531 5.546875 -85.40625 C 5.546875 -88.625 6.691406 -91.300781 8.984375 -93.4375 C 11.273438 -95.570312 14.234375 -96.640625 17.859375 -96.640625 C 21.390625 -96.640625 24.300781 -95.570312 26.59375 -93.4375 C 28.894531 -91.300781 30.046875 -88.625 30.046875 -85.40625 C 30.046875 -82.269531 28.894531 -79.632812 26.59375 -77.5 C 24.300781 -75.375 21.390625 -74.3125 17.859375 -74.3125 Z M 28.109375 -67.3125 L 28.109375 0 L 7.484375 0 L 7.484375 -67.3125 Z M 28.109375 -67.3125 "/></g></g></g><g fill="#ffffff" fill-opacity="1"><g transform="translate(910.817412, 860.999906)"><g><path d="M 34.859375 0.96875 C 28.992188 0.96875 23.769531 -0.0351562 19.1875 -2.046875 C 14.601562 -4.054688 10.984375 -6.8125 8.328125 -10.3125 C 5.671875 -13.8125 4.179688 -17.734375 3.859375 -22.078125 L 24.25 -22.078125 C 24.488281 -19.742188 25.570312 -17.851562 27.5 -16.40625 C 29.4375 -14.957031 31.8125 -14.234375 34.625 -14.234375 C 37.195312 -14.234375 39.1875 -14.734375 40.59375 -15.734375 C 42 -16.742188 42.703125 -18.054688 42.703125 -19.671875 C 42.703125 -21.597656 41.695312 -23.019531 39.6875 -23.9375 C 37.675781 -24.863281 34.421875 -25.894531 29.921875 -27.03125 C 25.097656 -28.15625 21.078125 -29.335938 17.859375 -30.578125 C 14.640625 -31.828125 11.863281 -33.796875 9.53125 -36.484375 C 7.195312 -39.179688 6.03125 -42.820312 6.03125 -47.40625 C 6.03125 -51.269531 7.09375 -54.789062 9.21875 -57.96875 C 11.351562 -61.144531 14.492188 -63.65625 18.640625 -65.5 C 22.785156 -67.351562 27.710938 -68.28125 33.421875 -68.28125 C 41.859375 -68.28125 48.507812 -66.1875 53.375 -62 C 58.25 -57.820312 61.046875 -52.273438 61.765625 -45.359375 L 42.703125 -45.359375 C 42.378906 -47.691406 41.351562 -49.539062 39.625 -50.90625 C 37.894531 -52.28125 35.625 -52.96875 32.8125 -52.96875 C 30.394531 -52.96875 28.539062 -52.503906 27.25 -51.578125 C 25.96875 -50.648438 25.328125 -49.382812 25.328125 -47.78125 C 25.328125 -45.84375 26.351562 -44.390625 28.40625 -43.421875 C 30.457031 -42.460938 33.65625 -41.5 38 -40.53125 C 42.988281 -39.25 47.050781 -37.984375 50.1875 -36.734375 C 53.320312 -35.484375 56.078125 -33.472656 58.453125 -30.703125 C 60.828125 -27.929688 62.050781 -24.210938 62.125 -19.546875 C 62.125 -15.597656 61.019531 -12.078125 58.8125 -8.984375 C 56.601562 -5.890625 53.425781 -3.457031 49.28125 -1.6875 C 45.132812 0.0820312 40.328125 0.96875 34.859375 0.96875 Z M 34.859375 0.96875 "/></g></g></g><g fill="#ffffff" fill-opacity="1"><g transform="translate(993.331435, 860.999906)"><g><path d="M 70.9375 -34.75 C 70.9375 -32.8125 70.816406 -30.800781 70.578125 -28.71875 L 23.890625 -28.71875 C 24.210938 -24.53125 25.554688 -21.328125 27.921875 -19.109375 C 30.296875 -16.898438 33.210938 -15.796875 36.671875 -15.796875 C 41.816406 -15.796875 45.394531 -17.96875 47.40625 -22.3125 L 69.375 -22.3125 C 68.238281 -17.894531 66.203125 -13.914062 63.265625 -10.375 C 60.335938 -6.832031 56.660156 -4.054688 52.234375 -2.046875 C 47.816406 -0.0351562 42.875 0.96875 37.40625 0.96875 C 30.800781 0.96875 24.925781 -0.4375 19.78125 -3.25 C 14.632812 -6.070312 10.613281 -10.09375 7.71875 -15.3125 C 4.820312 -20.539062 3.375 -26.65625 3.375 -33.65625 C 3.375 -40.65625 4.800781 -46.769531 7.65625 -52 C 10.507812 -57.226562 14.507812 -61.25 19.65625 -64.0625 C 24.8125 -66.875 30.726562 -68.28125 37.40625 -68.28125 C 43.914062 -68.28125 49.703125 -66.910156 54.765625 -64.171875 C 59.835938 -61.441406 63.800781 -57.539062 66.65625 -52.46875 C 69.507812 -47.40625 70.9375 -41.5 70.9375 -34.75 Z M 49.828125 -40.171875 C 49.828125 -43.710938 48.617188 -46.523438 46.203125 -48.609375 C 43.796875 -50.703125 40.78125 -51.75 37.15625 -51.75 C 33.695312 -51.75 30.78125 -50.742188 28.40625 -48.734375 C 26.039062 -46.722656 24.570312 -43.867188 24 -40.171875 Z M 49.828125 -40.171875 "/></g></g></g><g fill="#ffffff" fill-opacity="1"><g transform="translate(1123.617213, 860.999906)"><g><path d="M 17.125 0.96875 C 13.507812 0.96875 10.554688 -0.09375 8.265625 -2.21875 C 5.972656 -4.351562 4.828125 -6.992188 4.828125 -10.140625 C 4.828125 -13.347656 5.972656 -16.035156 8.265625 -18.203125 C 10.554688 -20.378906 13.507812 -21.46875 17.125 -21.46875 C 20.664062 -21.46875 23.582031 -20.378906 25.875 -18.203125 C 28.164062 -16.035156 29.3125 -13.347656 29.3125 -10.140625 C 29.3125 -6.992188 28.164062 -4.351562 25.875 -2.21875 C 23.582031 -0.09375 20.664062 0.96875 17.125 0.96875 Z M 17.125 0.96875 "/></g></g></g></svg>