<svg xmlns="http://www.w3.org/2000/svg" xmlns:xlink="http://www.w3.org/1999/xlink" width="2000" zoomAndPan="magnify" viewBox="0 0 1500 1499.999933" height="2000" preserveAspectRatio="xMidYMid meet" version="1.0"><defs><clipPath id="b7f467ed73"><path d="M 737 1323 L 774 1323 L 774 1359.96875 L 737 1359.96875 Z M 737 1323 " clip-rule="nonzero"/></clipPath><clipPath id="c5549f2f97"><path d="M 139.71875 732 L 177 732 L 177 770 L 139.71875 770 Z M 139.71875 732 " clip-rule="nonzero"/></clipPath><clipPath id="e4ed61784c"><path d="M 1323 732 L 1359.96875 732 L 1359.96875 770 L 1323 770 Z M 1323 732 " clip-rule="nonzero"/></clipPath></defs><rect x="-150" width="1800" fill="#ffffff" y="-149.999993" height="1799.99992" fill-opacity="1"/><rect x="-150" width="1800" fill="#000000" y="-149.999993" height="1799.99992" fill-opacity="1"/><path fill="#f76f03" d="M 773.925781 671.582031 C 773.925781 681.714844 765.726562 689.914062 755.589844 689.914062 C 745.457031 689.914062 737.234375 681.714844 737.234375 671.582031 C 737.234375 661.445312 745.457031 653.226562 755.589844 653.226562 C 765.726562 653.226562 773.925781 661.445312 773.925781 671.582031 " fill-opacity="1" fill-rule="nonzero"/><path fill="#f76f03" d="M 773.925781 433.210938 C 773.925781 443.328125 765.726562 451.546875 755.589844 451.546875 C 745.457031 451.546875 737.234375 443.328125 737.234375 433.210938 C 737.234375 423.078125 745.457031 414.855469 755.589844 414.855469 C 765.726562 414.855469 773.925781 423.078125 773.925781 433.210938 " fill-opacity="1" fill-rule="nonzero"/><path fill="#f76f03" d="M 652.597656 456.292969 C 652.597656 466.425781 644.398438 474.625 634.261719 474.625 C 624.128906 474.625 615.90625 466.425781 615.90625 456.292969 C 615.90625 446.15625 624.128906 437.9375 634.261719 437.9375 C 644.398438 437.9375 652.597656 446.15625 652.597656 456.292969 " fill-opacity="1" fill-rule="nonzero"/><path fill="#f76f03" d="M 546.523438 523.761719 C 546.523438 533.894531 538.304688 542.117188 528.167969 542.117188 C 518.035156 542.117188 509.8125 533.894531 509.8125 523.761719 C 509.8125 513.625 518.035156 505.40625 528.167969 505.40625 C 538.304688 505.40625 546.523438 513.625 546.523438 523.761719 " fill-opacity="1" fill-rule="nonzero"/><path fill="#f76f03" d="M 477.867188 627.917969 C 477.867188 638.054688 469.648438 646.273438 459.511719 646.273438 C 449.378906 646.273438 441.15625 638.054688 441.15625 627.917969 C 441.15625 617.785156 449.378906 609.585938 459.511719 609.585938 C 469.648438 609.585938 477.867188 617.785156 477.867188 627.917969 " fill-opacity="1" fill-rule="nonzero"/><path fill="#f76f03" d="M 451.8125 751.183594 C 451.8125 761.316406 443.59375 769.515625 433.476562 769.515625 C 423.34375 769.515625 415.125 761.316406 415.125 751.183594 C 415.125 741.046875 423.34375 732.828125 433.476562 732.828125 C 443.59375 732.828125 451.8125 741.046875 451.8125 751.183594 " fill-opacity="1" fill-rule="nonzero"/><path fill="#f76f03" d="M 477.867188 872.363281 C 477.867188 882.5 469.648438 890.699219 459.511719 890.699219 C 449.378906 890.699219 441.15625 882.5 441.15625 872.363281 C 441.15625 862.230469 449.378906 854.011719 459.511719 854.011719 C 469.648438 854.011719 477.867188 862.230469 477.867188 872.363281 " fill-opacity="1" fill-rule="nonzero"/><path fill="#f76f03" d="M 547.542969 977.855469 C 547.542969 987.992188 539.34375 996.210938 529.207031 996.210938 C 519.074219 996.210938 510.855469 987.992188 510.855469 977.855469 C 510.855469 967.722656 519.074219 959.519531 529.207031 959.519531 C 539.34375 959.519531 547.542969 967.722656 547.542969 977.855469 " fill-opacity="1" fill-rule="nonzero"/><path fill="#f76f03" d="M 649.953125 1045.347656 C 649.953125 1055.460938 641.734375 1063.679688 631.597656 1063.679688 C 621.464844 1063.679688 613.242188 1055.460938 613.242188 1045.347656 C 613.242188 1035.191406 621.464844 1026.992188 631.597656 1026.992188 C 641.734375 1026.992188 649.953125 1035.191406 649.953125 1045.347656 " fill-opacity="1" fill-rule="nonzero"/><path fill="#f76f03" d="M 773.925781 1069.152344 C 773.925781 1079.289062 765.726562 1087.507812 755.589844 1087.507812 C 745.457031 1087.507812 737.234375 1079.289062 737.234375 1069.152344 C 737.234375 1059.019531 745.457031 1050.820312 755.589844 1050.820312 C 765.726562 1050.820312 773.925781 1059.019531 773.925781 1069.152344 " fill-opacity="1" fill-rule="nonzero"/><path fill="#f76f03" d="M 893.503906 1045.347656 C 893.503906 1055.460938 885.285156 1063.679688 875.148438 1063.679688 C 865.015625 1063.679688 856.792969 1055.460938 856.792969 1045.347656 C 856.792969 1035.191406 865.015625 1026.992188 875.148438 1026.992188 C 885.285156 1026.992188 893.503906 1035.191406 893.503906 1045.347656 " fill-opacity="1" fill-rule="nonzero"/><path fill="#f76f03" d="M 946.15625 1169.191406 C 946.15625 1179.328125 937.957031 1187.527344 927.820312 1187.527344 C 917.6875 1187.527344 909.464844 1179.328125 909.464844 1169.191406 C 909.464844 1159.035156 917.6875 1150.835938 927.820312 1150.835938 C 937.957031 1150.835938 946.15625 1159.035156 946.15625 1169.191406 " fill-opacity="1" fill-rule="nonzero"/><path fill="#f76f03" d="M 773.925781 1203.945312 C 773.925781 1214.082031 765.726562 1222.300781 755.589844 1222.300781 C 745.457031 1222.300781 737.234375 1214.082031 737.234375 1203.945312 C 737.234375 1193.832031 745.457031 1185.613281 755.589844 1185.613281 C 765.726562 1185.613281 773.925781 1193.832031 773.925781 1203.945312 " fill-opacity="1" fill-rule="nonzero"/><path fill="#f76f03" d="M 597.261719 1172 C 597.261719 1182.117188 589.0625 1190.335938 578.925781 1190.335938 C 568.792969 1190.335938 560.570312 1182.117188 560.570312 1172 C 560.570312 1161.867188 568.792969 1153.644531 578.925781 1153.644531 C 589.0625 1153.644531 597.261719 1161.867188 597.261719 1172 " fill-opacity="1" fill-rule="nonzero"/><g clip-path="url(#b7f467ed73)"><path fill="#f76f03" d="M 773.925781 1341.546875 C 773.925781 1351.683594 765.726562 1359.902344 755.589844 1359.902344 C 745.457031 1359.902344 737.234375 1351.683594 737.234375 1341.546875 C 737.234375 1331.433594 745.457031 1323.214844 755.589844 1323.214844 C 765.726562 1323.214844 773.925781 1331.433594 773.925781 1341.546875 " fill-opacity="1" fill-rule="nonzero"/></g><path fill="#f76f03" d="M 545.335938 1298.492188 C 545.335938 1308.625 537.117188 1316.84375 526.980469 1316.84375 C 516.847656 1316.84375 508.625 1308.625 508.625 1298.492188 C 508.625 1288.375 516.847656 1280.15625 526.980469 1280.15625 C 537.117188 1280.15625 545.335938 1288.375 545.335938 1298.492188 " fill-opacity="1" fill-rule="nonzero"/><path fill="#f76f03" d="M 450.335938 1074.335938 C 450.335938 1084.46875 442.113281 1092.691406 432 1092.691406 C 421.867188 1092.691406 413.644531 1084.46875 413.644531 1074.335938 C 413.644531 1064.199219 421.867188 1055.980469 432 1055.980469 C 442.113281 1055.980469 450.335938 1064.199219 450.335938 1074.335938 " fill-opacity="1" fill-rule="nonzero"/><path fill="#f76f03" d="M 351.210938 926.972656 C 351.210938 937.085938 342.992188 945.308594 332.855469 945.308594 C 322.722656 945.308594 314.503906 937.085938 314.503906 926.972656 C 314.503906 916.816406 322.722656 908.617188 332.855469 908.617188 C 342.992188 908.617188 351.210938 916.816406 351.210938 926.972656 " fill-opacity="1" fill-rule="nonzero"/><path fill="#f76f03" d="M 222.765625 977.855469 C 222.765625 987.992188 214.546875 996.210938 204.414062 996.210938 C 194.296875 996.210938 186.078125 987.992188 186.078125 977.855469 C 186.078125 967.722656 194.296875 959.519531 204.414062 959.519531 C 214.546875 959.519531 222.765625 967.722656 222.765625 977.855469 " fill-opacity="1" fill-rule="nonzero"/><g clip-path="url(#c5549f2f97)"><path fill="#f76f03" d="M 176.609375 751.183594 C 176.609375 761.316406 168.386719 769.515625 158.253906 769.515625 C 148.117188 769.515625 139.917969 761.316406 139.917969 751.183594 C 139.917969 741.046875 148.117188 732.828125 158.253906 732.828125 C 168.386719 732.828125 176.609375 741.046875 176.609375 751.183594 " fill-opacity="1" fill-rule="nonzero"/></g><path fill="#f76f03" d="M 314.210938 749.707031 C 314.210938 759.839844 305.992188 768.058594 295.855469 768.058594 C 285.742188 768.058594 277.519531 759.839844 277.519531 749.707031 C 277.519531 739.570312 285.742188 731.351562 295.855469 731.351562 C 305.992188 731.351562 314.210938 739.570312 314.210938 749.707031 " fill-opacity="1" fill-rule="nonzero"/><path fill="#f76f03" d="M 351.210938 572.730469 C 351.210938 582.863281 342.992188 591.085938 332.855469 591.085938 C 322.722656 591.085938 314.503906 582.863281 314.503906 572.730469 C 314.503906 562.59375 322.722656 554.394531 332.855469 554.394531 C 342.992188 554.394531 351.210938 562.59375 351.210938 572.730469 " fill-opacity="1" fill-rule="nonzero"/><path fill="#f76f03" d="M 222.183594 520.660156 C 222.183594 530.792969 213.964844 538.996094 203.828125 538.996094 C 193.695312 538.996094 185.472656 530.792969 185.472656 520.660156 C 185.472656 510.523438 193.695312 502.304688 203.828125 502.304688 C 213.964844 502.304688 222.183594 510.523438 222.183594 520.660156 " fill-opacity="1" fill-rule="nonzero"/><path fill="#f76f03" d="M 351.210938 328.886719 C 351.210938 339.023438 342.992188 347.242188 332.855469 347.242188 C 322.722656 347.242188 314.503906 339.023438 314.503906 328.886719 C 314.503906 318.75 322.722656 310.550781 332.855469 310.550781 C 342.992188 310.550781 351.210938 318.75 351.210938 328.886719 " fill-opacity="1" fill-rule="nonzero"/><path fill="#f76f03" d="M 448.273438 426.550781 C 448.273438 436.6875 440.054688 444.886719 429.917969 444.886719 C 419.785156 444.886719 411.566406 436.6875 411.566406 426.550781 C 411.566406 416.417969 419.785156 408.199219 429.917969 408.199219 C 440.054688 408.199219 448.273438 416.417969 448.273438 426.550781 " fill-opacity="1" fill-rule="nonzero"/><path fill="#f76f03" d="M 600.527344 328.886719 C 600.527344 339.023438 592.308594 347.242188 582.171875 347.242188 C 572.039062 347.242188 563.839844 339.023438 563.839844 328.886719 C 563.839844 318.75 572.039062 310.550781 582.171875 310.550781 C 592.308594 310.550781 600.527344 318.75 600.527344 328.886719 " fill-opacity="1" fill-rule="nonzero"/><path fill="#f76f03" d="M 546.523438 201.046875 C 546.523438 211.179688 538.304688 219.398438 528.167969 219.398438 C 518.035156 219.398438 509.8125 211.179688 509.8125 201.046875 C 509.8125 190.910156 518.035156 182.710938 528.167969 182.710938 C 538.304688 182.710938 546.523438 190.910156 546.523438 201.046875 " fill-opacity="1" fill-rule="nonzero"/><path fill="#f76f03" d="M 773.925781 158.445312 C 773.925781 168.558594 765.726562 176.78125 755.589844 176.78125 C 745.457031 176.78125 737.234375 168.558594 737.234375 158.445312 C 737.234375 148.308594 745.457031 140.089844 755.589844 140.089844 C 765.726562 140.089844 773.925781 148.308594 773.925781 158.445312 " fill-opacity="1" fill-rule="nonzero"/><path fill="#f76f03" d="M 1000.617188 207.390625 C 1000.617188 217.527344 992.398438 225.746094 982.285156 225.746094 C 972.128906 225.746094 963.929688 217.527344 963.929688 207.390625 C 963.929688 197.257812 972.128906 189.058594 982.285156 189.058594 C 992.398438 189.058594 1000.617188 197.257812 1000.617188 207.390625 " fill-opacity="1" fill-rule="nonzero"/><path fill="#f76f03" d="M 773.925781 295.816406 C 773.925781 305.953125 765.726562 314.171875 755.589844 314.171875 C 745.457031 314.171875 737.234375 305.953125 737.234375 295.816406 C 737.234375 285.683594 745.457031 277.464844 755.589844 277.464844 C 765.726562 277.464844 773.925781 285.683594 773.925781 295.816406 " fill-opacity="1" fill-rule="nonzero"/><path fill="#f76f03" d="M 353.5625 1172 C 353.5625 1182.117188 345.34375 1190.335938 335.230469 1190.335938 C 325.09375 1190.335938 316.875 1182.117188 316.875 1172 C 316.875 1161.867188 325.09375 1153.644531 335.230469 1153.644531 C 345.34375 1153.644531 353.5625 1161.867188 353.5625 1172 " fill-opacity="1" fill-rule="nonzero"/><path fill="#f76f03" d="M 998.558594 1297.46875 C 998.558594 1307.605469 990.339844 1315.804688 980.203125 1315.804688 C 970.066406 1315.804688 961.847656 1307.605469 961.847656 1297.46875 C 961.847656 1287.335938 970.066406 1279.117188 980.203125 1279.117188 C 990.339844 1279.117188 998.558594 1287.335938 998.558594 1297.46875 " fill-opacity="1" fill-rule="nonzero"/><path fill="#f76f03" d="M 994.5625 971.945312 C 994.5625 982.082031 986.34375 990.300781 976.207031 990.300781 C 966.074219 990.300781 957.851562 982.082031 957.851562 971.945312 C 957.851562 961.8125 966.074219 953.589844 976.207031 953.589844 C 986.34375 953.589844 994.5625 961.8125 994.5625 971.945312 " fill-opacity="1" fill-rule="nonzero"/><path fill="#f76f03" d="M 1064.402344 872.363281 C 1064.402344 882.5 1056.183594 890.699219 1046.050781 890.699219 C 1035.914062 890.699219 1027.695312 882.5 1027.695312 872.363281 C 1027.695312 862.230469 1035.914062 854.011719 1046.050781 854.011719 C 1056.183594 854.011719 1064.402344 862.230469 1064.402344 872.363281 " fill-opacity="1" fill-rule="nonzero"/><path fill="#f76f03" d="M 1086.007812 751.183594 C 1086.007812 761.316406 1077.785156 769.515625 1067.652344 769.515625 C 1057.515625 769.515625 1049.296875 761.316406 1049.296875 751.183594 C 1049.296875 741.046875 1057.515625 732.828125 1067.652344 732.828125 C 1077.785156 732.828125 1086.007812 741.046875 1086.007812 751.183594 " fill-opacity="1" fill-rule="nonzero"/><path fill="#f76f03" d="M 1062.324219 631.332031 C 1062.324219 641.46875 1054.101562 649.6875 1043.96875 649.6875 C 1033.832031 649.6875 1025.632812 641.46875 1025.632812 631.332031 C 1025.632812 621.199219 1033.832031 612.976562 1043.96875 612.976562 C 1054.101562 612.976562 1062.324219 621.199219 1062.324219 631.332031 " fill-opacity="1" fill-rule="nonzero"/><path fill="#f76f03" d="M 994.855469 528.941406 C 994.855469 539.078125 986.632812 547.277344 976.5 547.277344 C 966.363281 547.277344 958.144531 539.078125 958.144531 528.941406 C 958.144531 518.808594 966.363281 510.585938 976.5 510.585938 C 986.632812 510.585938 994.855469 518.808594 994.855469 528.941406 " fill-opacity="1" fill-rule="nonzero"/><path fill="#f76f03" d="M 895.417969 459.976562 C 895.417969 470.109375 887.199219 478.332031 877.0625 478.332031 C 866.929688 478.332031 858.707031 470.109375 858.707031 459.976562 C 858.707031 449.859375 866.929688 441.640625 877.0625 441.640625 C 887.199219 441.640625 895.417969 449.859375 895.417969 459.976562 " fill-opacity="1" fill-rule="nonzero"/><path fill="#f76f03" d="M 947.488281 333.320312 C 947.488281 343.453125 939.289062 351.675781 929.152344 351.675781 C 919.019531 351.675781 910.796875 343.453125 910.796875 333.320312 C 910.796875 323.207031 919.019531 314.984375 929.152344 314.984375 C 939.289062 314.984375 947.488281 323.207031 947.488281 333.320312 " fill-opacity="1" fill-rule="nonzero"/><path fill="#f76f03" d="M 1091.875 433.210938 C 1091.875 443.328125 1083.65625 451.546875 1073.539062 451.546875 C 1063.382812 451.546875 1055.183594 443.328125 1055.183594 433.210938 C 1055.183594 423.078125 1063.382812 414.855469 1073.539062 414.855469 C 1083.65625 414.855469 1091.875 423.078125 1091.875 433.210938 " fill-opacity="1" fill-rule="nonzero"/><path fill="#f76f03" d="M 1187.75 579.535156 C 1187.75 589.667969 1179.53125 597.890625 1169.417969 597.890625 C 1159.28125 597.890625 1151.0625 589.667969 1151.0625 579.535156 C 1151.0625 569.398438 1159.28125 561.199219 1169.417969 561.199219 C 1179.53125 561.199219 1187.75 569.398438 1187.75 579.535156 " fill-opacity="1" fill-rule="nonzero"/><path fill="#f76f03" d="M 1223.003906 751.183594 C 1223.003906 761.316406 1214.785156 769.515625 1204.671875 769.515625 C 1194.535156 769.515625 1186.316406 761.316406 1186.316406 751.183594 C 1186.316406 741.046875 1194.535156 732.828125 1204.671875 732.828125 C 1214.785156 732.828125 1223.003906 741.046875 1223.003906 751.183594 " fill-opacity="1" fill-rule="nonzero"/><path fill="#f76f03" d="M 1187.75 922.8125 C 1187.75 932.945312 1179.53125 941.167969 1169.417969 941.167969 C 1159.28125 941.167969 1151.0625 932.945312 1151.0625 922.8125 C 1151.0625 912.675781 1159.28125 904.476562 1169.417969 904.476562 C 1179.53125 904.476562 1187.75 912.675781 1187.75 922.8125 " fill-opacity="1" fill-rule="nonzero"/><path fill="#f76f03" d="M 1090.4375 1068.257812 C 1090.4375 1078.414062 1082.21875 1086.613281 1072.082031 1086.613281 C 1061.949219 1086.613281 1053.75 1078.414062 1053.75 1068.257812 C 1053.75 1058.144531 1061.949219 1049.925781 1072.082031 1049.925781 C 1082.21875 1049.925781 1090.4375 1058.144531 1090.4375 1068.257812 " fill-opacity="1" fill-rule="nonzero"/><path fill="#f76f03" d="M 1187.75 1167.257812 C 1187.75 1177.390625 1179.53125 1185.613281 1169.417969 1185.613281 C 1159.28125 1185.613281 1151.0625 1177.390625 1151.0625 1167.257812 C 1151.0625 1157.121094 1159.28125 1148.921875 1169.417969 1148.921875 C 1179.53125 1148.921875 1187.75 1157.121094 1187.75 1167.257812 " fill-opacity="1" fill-rule="nonzero"/><path fill="#f76f03" d="M 1315.59375 977.417969 C 1315.59375 987.554688 1307.371094 995.773438 1297.257812 995.773438 C 1287.125 995.773438 1278.902344 987.554688 1278.902344 977.417969 C 1278.902344 967.285156 1287.125 959.0625 1297.257812 959.0625 C 1307.371094 959.0625 1315.59375 967.285156 1315.59375 977.417969 " fill-opacity="1" fill-rule="nonzero"/><g clip-path="url(#e4ed61784c)"><path fill="#f76f03" d="M 1360.605469 751.183594 C 1360.605469 761.316406 1352.40625 769.515625 1342.273438 769.515625 C 1332.136719 769.515625 1323.917969 761.316406 1323.917969 751.183594 C 1323.917969 741.046875 1332.136719 732.828125 1342.273438 732.828125 C 1352.40625 732.828125 1360.605469 741.046875 1360.605469 751.183594 " fill-opacity="1" fill-rule="nonzero"/></g><path fill="#f76f03" d="M 1315.59375 525.820312 C 1315.59375 535.957031 1307.371094 544.175781 1297.257812 544.175781 C 1287.125 544.175781 1278.902344 535.957031 1278.902344 525.820312 C 1278.902344 515.6875 1287.125 507.488281 1297.257812 507.488281 C 1307.371094 507.488281 1315.59375 515.6875 1315.59375 525.820312 " fill-opacity="1" fill-rule="nonzero"/><path fill="#f76f03" d="M 1189.539062 336.128906 C 1189.539062 346.265625 1181.320312 354.484375 1171.183594 354.484375 C 1161.050781 354.484375 1152.832031 346.265625 1152.832031 336.128906 C 1152.832031 325.992188 1161.050781 317.792969 1171.183594 317.792969 C 1181.320312 317.792969 1189.539062 325.992188 1189.539062 336.128906 " fill-opacity="1" fill-rule="nonzero"/><path fill="#f76f03" d="M 773.925781 827.828125 C 773.925781 837.964844 765.726562 846.183594 755.589844 846.183594 C 745.457031 846.183594 737.234375 837.964844 737.234375 827.828125 C 737.234375 817.695312 745.457031 809.472656 755.589844 809.472656 C 765.726562 809.472656 773.925781 817.695312 773.925781 827.828125 " fill-opacity="1" fill-rule="nonzero"/><path fill="#f76f03" d="M 689.308594 751.183594 C 689.308594 761.316406 681.085938 769.515625 670.953125 769.515625 C 660.816406 769.515625 652.597656 761.316406 652.597656 751.183594 C 652.597656 741.046875 660.816406 732.828125 670.953125 732.828125 C 681.085938 732.828125 689.308594 741.046875 689.308594 751.183594 " fill-opacity="1" fill-rule="nonzero"/><path fill="#f76f03" d="M 846.742188 751.183594 C 846.742188 761.316406 838.523438 769.515625 828.386719 769.515625 C 818.253906 769.515625 810.054688 761.316406 810.054688 751.183594 C 810.054688 741.046875 818.253906 732.828125 828.386719 732.828125 C 838.523438 732.828125 846.742188 741.046875 846.742188 751.183594 " fill-opacity="1" fill-rule="nonzero"/><path fill="#f76f03" d="M 715.34375 692.578125 C 715.34375 702.714844 707.121094 710.933594 696.988281 710.933594 C 686.871094 710.933594 678.652344 702.714844 678.652344 692.578125 C 678.652344 682.445312 686.871094 674.246094 696.988281 674.246094 C 707.121094 674.246094 715.34375 682.445312 715.34375 692.578125 " fill-opacity="1" fill-rule="nonzero"/><path fill="#f76f03" d="M 828.386719 697.90625 C 828.386719 708.042969 820.167969 716.261719 810.054688 716.261719 C 799.898438 716.261719 791.699219 708.042969 791.699219 697.90625 C 791.699219 687.773438 799.898438 679.574219 810.054688 679.574219 C 820.167969 679.574219 828.386719 687.773438 828.386719 697.90625 " fill-opacity="1" fill-rule="nonzero"/><path fill="#f76f03" d="M 828.386719 804.457031 C 828.386719 814.574219 820.167969 822.792969 810.054688 822.792969 C 799.898438 822.792969 791.699219 814.574219 791.699219 804.457031 C 791.699219 794.304688 799.898438 786.105469 810.054688 786.105469 C 820.167969 786.105469 828.386719 794.304688 828.386719 804.457031 " fill-opacity="1" fill-rule="nonzero"/><path fill="#f76f03" d="M 715.34375 809.472656 C 715.34375 819.609375 707.121094 827.828125 696.988281 827.828125 C 686.871094 827.828125 678.652344 819.609375 678.652344 809.472656 C 678.652344 799.339844 686.871094 791.140625 696.988281 791.140625 C 707.121094 791.140625 715.34375 799.339844 715.34375 809.472656 " fill-opacity="1" fill-rule="nonzero"/><path fill="#f76f03" d="M 699.960938 572.730469 C 699.960938 582.863281 691.742188 591.085938 681.609375 591.085938 C 671.472656 591.085938 663.253906 582.863281 663.253906 572.730469 C 663.253906 562.59375 671.472656 554.394531 681.609375 554.394531 C 691.742188 554.394531 699.960938 562.59375 699.960938 572.730469 " fill-opacity="1" fill-rule="nonzero"/><path fill="#f76f03" d="M 773.925781 562.386719 C 773.925781 572.519531 765.726562 580.71875 755.589844 580.71875 C 745.457031 580.71875 737.234375 572.519531 737.234375 562.386719 C 737.234375 552.25 745.457031 544.03125 755.589844 544.03125 C 765.726562 544.03125 773.925781 552.25 773.925781 562.386719 " fill-opacity="1" fill-rule="nonzero"/><path fill="#f76f03" d="M 846.742188 579.535156 C 846.742188 589.667969 838.523438 597.890625 828.386719 597.890625 C 818.253906 597.890625 810.054688 589.667969 810.054688 579.535156 C 810.054688 569.398438 818.253906 561.199219 828.386719 561.199219 C 838.523438 561.199219 846.742188 569.398438 846.742188 579.535156 " fill-opacity="1" fill-rule="nonzero"/><path fill="#f76f03" d="M 903.554688 619.199219 C 903.554688 629.335938 895.335938 637.554688 885.199219 637.554688 C 875.066406 637.554688 866.867188 629.335938 866.867188 619.199219 C 866.867188 609.066406 875.066406 600.84375 885.199219 600.84375 C 895.335938 600.84375 903.554688 609.066406 903.554688 619.199219 " fill-opacity="1" fill-rule="nonzero"/><path fill="#f76f03" d="M 943.660156 679.574219 C 943.660156 689.707031 935.4375 697.90625 925.304688 697.90625 C 915.167969 697.90625 906.949219 689.707031 906.949219 679.574219 C 906.949219 669.4375 915.167969 661.21875 925.304688 661.21875 C 935.4375 661.21875 943.660156 669.4375 943.660156 679.574219 " fill-opacity="1" fill-rule="nonzero"/><path fill="#f76f03" d="M 957.851562 751.183594 C 957.851562 761.316406 949.652344 769.515625 939.496094 769.515625 C 929.382812 769.515625 921.164062 761.316406 921.164062 751.183594 C 921.164062 741.046875 929.382812 732.828125 939.496094 732.828125 C 949.652344 732.828125 957.851562 741.046875 957.851562 751.183594 " fill-opacity="1" fill-rule="nonzero"/><path fill="#f76f03" d="M 943.660156 822.792969 C 943.660156 832.929688 935.4375 841.148438 925.304688 841.148438 C 915.167969 841.148438 906.949219 832.929688 906.949219 822.792969 C 906.949219 812.660156 915.167969 804.457031 925.304688 804.457031 C 935.4375 804.457031 943.660156 812.660156 943.660156 822.792969 " fill-opacity="1" fill-rule="nonzero"/><path fill="#f76f03" d="M 903.554688 883.164062 C 903.554688 893.300781 895.335938 901.5 885.199219 901.5 C 875.066406 901.5 866.867188 893.300781 866.867188 883.164062 C 866.867188 873.03125 875.066406 864.8125 885.199219 864.8125 C 895.335938 864.8125 903.554688 873.03125 903.554688 883.164062 " fill-opacity="1" fill-rule="nonzero"/><path fill="#f76f03" d="M 843.183594 922.8125 C 843.183594 932.945312 834.964844 941.167969 824.828125 941.167969 C 814.714844 941.167969 806.492188 932.945312 806.492188 922.8125 C 806.492188 912.675781 814.714844 904.476562 824.828125 904.476562 C 834.964844 904.476562 843.183594 912.675781 843.183594 922.8125 " fill-opacity="1" fill-rule="nonzero"/><path fill="#f76f03" d="M 773.925781 941.167969 C 773.925781 951.300781 765.726562 959.519531 755.589844 959.519531 C 745.457031 959.519531 737.234375 951.300781 737.234375 941.167969 C 737.234375 931.03125 745.457031 922.8125 755.589844 922.8125 C 765.726562 922.8125 773.925781 931.03125 773.925781 941.167969 " fill-opacity="1" fill-rule="nonzero"/><path fill="#f76f03" d="M 637.21875 616.246094 C 637.21875 626.378906 628.996094 634.578125 618.863281 634.578125 C 608.75 634.578125 600.527344 626.378906 600.527344 616.246094 C 600.527344 606.109375 608.75 597.890625 618.863281 597.890625 C 628.996094 597.890625 637.21875 606.109375 637.21875 616.246094 " fill-opacity="1" fill-rule="nonzero"/><path fill="#f76f03" d="M 596.15625 677.574219 C 596.15625 687.710938 587.9375 695.910156 577.800781 695.910156 C 567.6875 695.910156 559.46875 687.710938 559.46875 677.574219 C 559.46875 667.441406 567.6875 659.21875 577.800781 659.21875 C 587.9375 659.21875 596.15625 667.441406 596.15625 677.574219 " fill-opacity="1" fill-rule="nonzero"/><path fill="#f76f03" d="M 576.699219 751.183594 C 576.699219 761.316406 568.480469 769.515625 558.34375 769.515625 C 548.210938 769.515625 540.007812 761.316406 540.007812 751.183594 C 540.007812 741.046875 548.210938 732.828125 558.34375 732.828125 C 568.480469 732.828125 576.699219 741.046875 576.699219 751.183594 " fill-opacity="1" fill-rule="nonzero"/><path fill="#f76f03" d="M 596.15625 822.792969 C 596.15625 832.929688 587.9375 841.148438 577.800781 841.148438 C 567.6875 841.148438 559.46875 832.929688 559.46875 822.792969 C 559.46875 812.660156 567.6875 804.457031 577.800781 804.457031 C 587.9375 804.457031 596.15625 812.660156 596.15625 822.792969 " fill-opacity="1" fill-rule="nonzero"/><path fill="#f76f03" d="M 699.960938 926.972656 C 699.960938 937.085938 691.742188 945.308594 681.609375 945.308594 C 671.472656 945.308594 663.253906 937.085938 663.253906 926.972656 C 663.253906 916.816406 671.472656 908.617188 681.609375 908.617188 C 691.742188 908.617188 699.960938 916.816406 699.960938 926.972656 " fill-opacity="1" fill-rule="nonzero"/><path fill="#f76f03" d="M 637.21875 886.121094 C 637.21875 896.257812 628.996094 904.476562 618.863281 904.476562 C 608.75 904.476562 600.527344 896.257812 600.527344 886.121094 C 600.527344 875.984375 608.75 867.765625 618.863281 867.765625 C 628.996094 867.765625 637.21875 875.984375 637.21875 886.121094 " fill-opacity="1" fill-rule="nonzero"/></svg>