<svg xmlns="http://www.w3.org/2000/svg" xmlns:xlink="http://www.w3.org/1999/xlink" width="2000" zoomAndPan="magnify" viewBox="0 0 1500 1499.999933" height="2000" preserveAspectRatio="xMidYMid meet" version="1.0"><defs><clipPath id="e6c09a9042"><path d="M 739 1239 L 771 1239 L 771 1271.070312 L 739 1271.070312 Z M 739 1239 " clip-rule="nonzero"/></clipPath><clipPath id="72f94d09d1"><path d="M 228.570312 735 L 261 735 L 261 767 L 228.570312 767 Z M 228.570312 735 " clip-rule="nonzero"/></clipPath><clipPath id="7bf52b36c8"><path d="M 739 228.570312 L 771 228.570312 L 771 261 L 739 261 Z M 739 228.570312 " clip-rule="nonzero"/></clipPath><clipPath id="60e6c68963"><path d="M 1240 735 L 1271.070312 735 L 1271.070312 767 L 1240 767 Z M 1240 735 " clip-rule="nonzero"/></clipPath></defs><rect x="-150" width="1800" fill="#ffffff" y="-149.999993" height="1799.99992" fill-opacity="1"/><rect x="-150" width="1800" fill="#ffffff" y="-149.999993" height="1799.99992" fill-opacity="1"/><path fill="#f76f03" d="M 770.441406 682.996094 C 770.441406 691.65625 763.433594 698.660156 754.773438 698.660156 C 746.117188 698.660156 739.09375 691.65625 739.09375 682.996094 C 739.09375 674.335938 746.117188 667.3125 754.773438 667.3125 C 763.433594 667.3125 770.441406 674.335938 770.441406 682.996094 " fill-opacity="1" fill-rule="nonzero"/><path fill="#f76f03" d="M 770.441406 479.332031 C 770.441406 487.972656 763.433594 494.996094 754.773438 494.996094 C 746.117188 494.996094 739.09375 487.972656 739.09375 479.332031 C 739.09375 470.671875 746.117188 463.648438 754.773438 463.648438 C 763.433594 463.648438 770.441406 470.671875 770.441406 479.332031 " fill-opacity="1" fill-rule="nonzero"/><path fill="#f76f03" d="M 666.777344 499.050781 C 666.777344 507.710938 659.769531 514.714844 651.109375 514.714844 C 642.453125 514.714844 635.429688 507.710938 635.429688 499.050781 C 635.429688 490.390625 642.453125 483.367188 651.109375 483.367188 C 659.769531 483.367188 666.777344 490.390625 666.777344 499.050781 " fill-opacity="1" fill-rule="nonzero"/><path fill="#f76f03" d="M 576.144531 556.699219 C 576.144531 565.355469 569.121094 572.378906 560.464844 572.378906 C 551.804688 572.378906 544.78125 565.355469 544.78125 556.699219 C 544.78125 548.039062 551.804688 541.015625 560.464844 541.015625 C 569.121094 541.015625 576.144531 548.039062 576.144531 556.699219 " fill-opacity="1" fill-rule="nonzero"/><path fill="#f76f03" d="M 517.488281 645.691406 C 517.488281 654.351562 510.464844 661.375 501.804688 661.375 C 493.144531 661.375 486.121094 654.351562 486.121094 645.691406 C 486.121094 637.03125 493.144531 630.027344 501.804688 630.027344 C 510.464844 630.027344 517.488281 637.03125 517.488281 645.691406 " fill-opacity="1" fill-rule="nonzero"/><path fill="#f76f03" d="M 495.226562 751.007812 C 495.226562 759.667969 488.203125 766.675781 479.558594 766.675781 C 470.898438 766.675781 463.875 759.667969 463.875 751.007812 C 463.875 742.347656 470.898438 735.324219 479.558594 735.324219 C 488.203125 735.324219 495.226562 742.347656 495.226562 751.007812 " fill-opacity="1" fill-rule="nonzero"/><path fill="#f76f03" d="M 517.488281 854.546875 C 517.488281 863.207031 510.464844 870.214844 501.804688 870.214844 C 493.144531 870.214844 486.121094 863.207031 486.121094 854.546875 C 486.121094 845.886719 493.144531 838.863281 501.804688 838.863281 C 510.464844 838.863281 517.488281 845.886719 517.488281 854.546875 " fill-opacity="1" fill-rule="nonzero"/><path fill="#f76f03" d="M 577.019531 944.679688 C 577.019531 953.339844 570.011719 960.363281 561.351562 960.363281 C 552.691406 960.363281 545.667969 953.339844 545.667969 944.679688 C 545.667969 936.019531 552.691406 929.015625 561.351562 929.015625 C 570.011719 929.015625 577.019531 936.019531 577.019531 944.679688 " fill-opacity="1" fill-rule="nonzero"/><path fill="#f76f03" d="M 664.519531 1002.34375 C 664.519531 1010.984375 657.496094 1018.007812 648.835938 1018.007812 C 640.175781 1018.007812 633.152344 1010.984375 633.152344 1002.34375 C 633.152344 993.667969 640.175781 986.660156 648.835938 986.660156 C 657.496094 986.660156 664.519531 993.667969 664.519531 1002.34375 " fill-opacity="1" fill-rule="nonzero"/><path fill="#f76f03" d="M 770.441406 1022.683594 C 770.441406 1031.34375 763.433594 1038.367188 754.773438 1038.367188 C 746.117188 1038.367188 739.09375 1031.34375 739.09375 1022.683594 C 739.09375 1014.027344 746.117188 1007.019531 754.773438 1007.019531 C 763.433594 1007.019531 770.441406 1014.027344 770.441406 1022.683594 " fill-opacity="1" fill-rule="nonzero"/><path fill="#f76f03" d="M 872.609375 1002.34375 C 872.609375 1010.984375 865.585938 1018.007812 856.925781 1018.007812 C 848.265625 1018.007812 841.242188 1010.984375 841.242188 1002.34375 C 841.242188 993.667969 848.265625 986.660156 856.925781 986.660156 C 865.585938 986.660156 872.609375 993.667969 872.609375 1002.34375 " fill-opacity="1" fill-rule="nonzero"/><path fill="#f76f03" d="M 917.597656 1108.160156 C 917.597656 1116.816406 910.589844 1123.824219 901.929688 1123.824219 C 893.269531 1123.824219 886.246094 1116.816406 886.246094 1108.160156 C 886.246094 1099.480469 893.269531 1092.476562 901.929688 1092.476562 C 910.589844 1092.476562 917.597656 1099.480469 917.597656 1108.160156 " fill-opacity="1" fill-rule="nonzero"/><path fill="#f76f03" d="M 770.441406 1137.851562 C 770.441406 1146.511719 763.433594 1153.535156 754.773438 1153.535156 C 746.117188 1153.535156 739.09375 1146.511719 739.09375 1137.851562 C 739.09375 1129.210938 746.117188 1122.1875 754.773438 1122.1875 C 763.433594 1122.1875 770.441406 1129.210938 770.441406 1137.851562 " fill-opacity="1" fill-rule="nonzero"/><path fill="#f76f03" d="M 619.496094 1110.558594 C 619.496094 1119.199219 612.492188 1126.222656 603.832031 1126.222656 C 595.171875 1126.222656 588.148438 1119.199219 588.148438 1110.558594 C 588.148438 1101.898438 595.171875 1094.875 603.832031 1094.875 C 612.492188 1094.875 619.496094 1101.898438 619.496094 1110.558594 " fill-opacity="1" fill-rule="nonzero"/><g clip-path="url(#e6c09a9042)"><path fill="#f76f03" d="M 770.441406 1255.421875 C 770.441406 1264.082031 763.433594 1271.105469 754.773438 1271.105469 C 746.117188 1271.105469 739.09375 1264.082031 739.09375 1255.421875 C 739.09375 1246.78125 746.117188 1239.757812 754.773438 1239.757812 C 763.433594 1239.757812 770.441406 1246.78125 770.441406 1255.421875 " fill-opacity="1" fill-rule="nonzero"/></g><path fill="#f76f03" d="M 575.132812 1218.632812 C 575.132812 1227.292969 568.109375 1234.316406 559.449219 1234.316406 C 550.789062 1234.316406 543.765625 1227.292969 543.765625 1218.632812 C 543.765625 1209.992188 550.789062 1202.96875 559.449219 1202.96875 C 568.109375 1202.96875 575.132812 1209.992188 575.132812 1218.632812 " fill-opacity="1" fill-rule="nonzero"/><path fill="#f76f03" d="M 493.960938 1027.113281 C 493.960938 1035.773438 486.9375 1042.796875 478.296875 1042.796875 C 469.636719 1042.796875 462.613281 1035.773438 462.613281 1027.113281 C 462.613281 1018.453125 469.636719 1011.429688 478.296875 1011.429688 C 486.9375 1011.429688 493.960938 1018.453125 493.960938 1027.113281 " fill-opacity="1" fill-rule="nonzero"/><path fill="#f76f03" d="M 409.269531 901.207031 C 409.269531 909.847656 402.246094 916.871094 393.589844 916.871094 C 384.929688 916.871094 377.90625 909.847656 377.90625 901.207031 C 377.90625 892.527344 384.929688 885.523438 393.589844 885.523438 C 402.246094 885.523438 409.269531 892.527344 409.269531 901.207031 " fill-opacity="1" fill-rule="nonzero"/><path fill="#f76f03" d="M 299.527344 944.679688 C 299.527344 953.339844 292.503906 960.363281 283.84375 960.363281 C 275.203125 960.363281 268.179688 953.339844 268.179688 944.679688 C 268.179688 936.019531 275.203125 929.015625 283.84375 929.015625 C 292.503906 929.015625 299.527344 936.019531 299.527344 944.679688 " fill-opacity="1" fill-rule="nonzero"/><g clip-path="url(#72f94d09d1)"><path fill="#f76f03" d="M 260.089844 751.007812 C 260.089844 759.667969 253.066406 766.675781 244.40625 766.675781 C 235.746094 766.675781 228.742188 759.667969 228.742188 751.007812 C 228.742188 742.347656 235.746094 735.324219 244.40625 735.324219 C 253.066406 735.324219 260.089844 742.347656 260.089844 751.007812 " fill-opacity="1" fill-rule="nonzero"/></g><path fill="#f76f03" d="M 377.65625 749.746094 C 377.65625 758.40625 370.632812 765.429688 361.972656 765.429688 C 353.332031 765.429688 346.308594 758.40625 346.308594 749.746094 C 346.308594 741.085938 353.332031 734.0625 361.972656 734.0625 C 370.632812 734.0625 377.65625 741.085938 377.65625 749.746094 " fill-opacity="1" fill-rule="nonzero"/><path fill="#f76f03" d="M 409.269531 598.535156 C 409.269531 607.195312 402.246094 614.21875 393.589844 614.21875 C 384.929688 614.21875 377.90625 607.195312 377.90625 598.535156 C 377.90625 589.875 384.929688 582.871094 393.589844 582.871094 C 402.246094 582.871094 409.269531 589.875 409.269531 598.535156 " fill-opacity="1" fill-rule="nonzero"/><path fill="#f76f03" d="M 299.027344 554.046875 C 299.027344 562.707031 292.003906 569.714844 283.347656 569.714844 C 274.6875 569.714844 267.664062 562.707031 267.664062 554.046875 C 267.664062 545.390625 274.6875 538.363281 283.347656 538.363281 C 292.003906 538.363281 299.027344 545.390625 299.027344 554.046875 " fill-opacity="1" fill-rule="nonzero"/><path fill="#f76f03" d="M 409.269531 390.195312 C 409.269531 398.855469 402.246094 405.878906 393.589844 405.878906 C 384.929688 405.878906 377.90625 398.855469 377.90625 390.195312 C 377.90625 381.535156 384.929688 374.53125 393.589844 374.53125 C 402.246094 374.53125 409.269531 381.535156 409.269531 390.195312 " fill-opacity="1" fill-rule="nonzero"/><path fill="#f76f03" d="M 492.203125 473.640625 C 492.203125 482.300781 485.179688 489.308594 476.519531 489.308594 C 467.859375 489.308594 460.835938 482.300781 460.835938 473.640625 C 460.835938 464.984375 467.859375 457.960938 476.519531 457.960938 C 485.179688 457.960938 492.203125 464.984375 492.203125 473.640625 " fill-opacity="1" fill-rule="nonzero"/><path fill="#f76f03" d="M 622.289062 390.195312 C 622.289062 398.855469 615.265625 405.878906 606.605469 405.878906 C 597.945312 405.878906 590.941406 398.855469 590.941406 390.195312 C 590.941406 381.535156 597.945312 374.53125 606.605469 374.53125 C 615.265625 374.53125 622.289062 381.535156 622.289062 390.195312 " fill-opacity="1" fill-rule="nonzero"/><path fill="#f76f03" d="M 576.144531 280.964844 C 576.144531 289.625 569.121094 296.648438 560.464844 296.648438 C 551.804688 296.648438 544.78125 289.625 544.78125 280.964844 C 544.78125 272.308594 551.804688 265.300781 560.464844 265.300781 C 569.121094 265.300781 576.144531 272.308594 576.144531 280.964844 " fill-opacity="1" fill-rule="nonzero"/><g clip-path="url(#7bf52b36c8)"><path fill="#f76f03" d="M 770.441406 244.570312 C 770.441406 253.210938 763.433594 260.234375 754.773438 260.234375 C 746.117188 260.234375 739.09375 253.210938 739.09375 244.570312 C 739.09375 235.910156 746.117188 228.886719 754.773438 228.886719 C 763.433594 228.886719 770.441406 235.910156 770.441406 244.570312 " fill-opacity="1" fill-rule="nonzero"/></g><path fill="#f76f03" d="M 964.128906 286.390625 C 964.128906 295.050781 957.105469 302.074219 948.464844 302.074219 C 939.785156 302.074219 932.78125 295.050781 932.78125 286.390625 C 932.78125 277.730469 939.785156 270.726562 948.464844 270.726562 C 957.105469 270.726562 964.128906 277.730469 964.128906 286.390625 " fill-opacity="1" fill-rule="nonzero"/><path fill="#f76f03" d="M 770.441406 361.941406 C 770.441406 370.601562 763.433594 377.625 754.773438 377.625 C 746.117188 377.625 739.09375 370.601562 739.09375 361.941406 C 739.09375 353.28125 746.117188 346.257812 754.773438 346.257812 C 763.433594 346.257812 770.441406 353.28125 770.441406 361.941406 " fill-opacity="1" fill-rule="nonzero"/><path fill="#f76f03" d="M 411.28125 1110.558594 C 411.28125 1119.199219 404.257812 1126.222656 395.617188 1126.222656 C 386.957031 1126.222656 379.933594 1119.199219 379.933594 1110.558594 C 379.933594 1101.898438 386.957031 1094.875 395.617188 1094.875 C 404.257812 1094.875 411.28125 1101.898438 411.28125 1110.558594 " fill-opacity="1" fill-rule="nonzero"/><path fill="#f76f03" d="M 962.367188 1217.761719 C 962.367188 1226.421875 955.34375 1233.425781 946.6875 1233.425781 C 938.027344 1233.425781 931.003906 1226.421875 931.003906 1217.761719 C 931.003906 1209.101562 938.027344 1202.078125 946.6875 1202.078125 C 955.34375 1202.078125 962.367188 1209.101562 962.367188 1217.761719 " fill-opacity="1" fill-rule="nonzero"/><path fill="#f76f03" d="M 958.953125 939.628906 C 958.953125 948.289062 951.929688 955.3125 943.273438 955.3125 C 934.613281 955.3125 927.589844 948.289062 927.589844 939.628906 C 927.589844 930.972656 934.613281 923.945312 943.273438 923.945312 C 951.929688 923.945312 958.953125 930.972656 958.953125 939.628906 " fill-opacity="1" fill-rule="nonzero"/><path fill="#f76f03" d="M 1018.628906 854.546875 C 1018.628906 863.207031 1011.605469 870.214844 1002.945312 870.214844 C 994.285156 870.214844 987.261719 863.207031 987.261719 854.546875 C 987.261719 845.886719 994.285156 838.863281 1002.945312 838.863281 C 1011.605469 838.863281 1018.628906 845.886719 1018.628906 854.546875 " fill-opacity="1" fill-rule="nonzero"/><path fill="#f76f03" d="M 1037.085938 751.007812 C 1037.085938 759.667969 1030.0625 766.675781 1021.402344 766.675781 C 1012.742188 766.675781 1005.71875 759.667969 1005.71875 751.007812 C 1005.71875 742.347656 1012.742188 735.324219 1021.402344 735.324219 C 1030.0625 735.324219 1037.085938 742.347656 1037.085938 751.007812 " fill-opacity="1" fill-rule="nonzero"/><path fill="#f76f03" d="M 1016.851562 648.609375 C 1016.851562 657.265625 1009.824219 664.289062 1001.167969 664.289062 C 992.507812 664.289062 985.5 657.265625 985.5 648.609375 C 985.5 639.949219 992.507812 632.925781 1001.167969 632.925781 C 1009.824219 632.925781 1016.851562 639.949219 1016.851562 648.609375 " fill-opacity="1" fill-rule="nonzero"/><path fill="#f76f03" d="M 959.203125 561.125 C 959.203125 569.785156 952.179688 576.789062 943.519531 576.789062 C 934.859375 576.789062 927.835938 569.785156 927.835938 561.125 C 927.835938 552.464844 934.859375 545.441406 943.519531 545.441406 C 952.179688 545.441406 959.203125 552.464844 959.203125 561.125 " fill-opacity="1" fill-rule="nonzero"/><path fill="#f76f03" d="M 874.246094 502.199219 C 874.246094 510.859375 867.222656 517.882812 858.5625 517.882812 C 849.902344 517.882812 842.878906 510.859375 842.878906 502.199219 C 842.878906 493.558594 849.902344 486.535156 858.5625 486.535156 C 867.222656 486.535156 874.246094 493.558594 874.246094 502.199219 " fill-opacity="1" fill-rule="nonzero"/><path fill="#f76f03" d="M 918.734375 393.984375 C 918.734375 402.640625 911.726562 409.664062 903.070312 409.664062 C 894.410156 409.664062 887.386719 402.640625 887.386719 393.984375 C 887.386719 385.339844 894.410156 378.316406 903.070312 378.316406 C 911.726562 378.316406 918.734375 385.339844 918.734375 393.984375 " fill-opacity="1" fill-rule="nonzero"/><path fill="#f76f03" d="M 1042.097656 479.332031 C 1042.097656 487.972656 1035.074219 494.996094 1026.433594 494.996094 C 1017.757812 494.996094 1010.75 487.972656 1010.75 479.332031 C 1010.75 470.671875 1017.757812 463.648438 1026.433594 463.648438 C 1035.074219 463.648438 1042.097656 470.671875 1042.097656 479.332031 " fill-opacity="1" fill-rule="nonzero"/><path fill="#f76f03" d="M 1124.015625 604.351562 C 1124.015625 613.011719 1116.992188 620.035156 1108.351562 620.035156 C 1099.691406 620.035156 1092.667969 613.011719 1092.667969 604.351562 C 1092.667969 595.691406 1099.691406 588.683594 1108.351562 588.683594 C 1116.992188 588.683594 1124.015625 595.691406 1124.015625 604.351562 " fill-opacity="1" fill-rule="nonzero"/><path fill="#f76f03" d="M 1154.136719 751.007812 C 1154.136719 759.667969 1147.113281 766.675781 1138.472656 766.675781 C 1129.8125 766.675781 1122.789062 759.667969 1122.789062 751.007812 C 1122.789062 742.347656 1129.8125 735.324219 1138.472656 735.324219 C 1147.113281 735.324219 1154.136719 742.347656 1154.136719 751.007812 " fill-opacity="1" fill-rule="nonzero"/><path fill="#f76f03" d="M 1124.015625 897.648438 C 1124.015625 906.308594 1116.992188 913.332031 1108.351562 913.332031 C 1099.691406 913.332031 1092.667969 906.308594 1092.667969 897.648438 C 1092.667969 888.988281 1099.691406 881.984375 1108.351562 881.984375 C 1116.992188 881.984375 1124.015625 888.988281 1124.015625 897.648438 " fill-opacity="1" fill-rule="nonzero"/><path fill="#f76f03" d="M 1040.871094 1021.921875 C 1040.871094 1030.597656 1033.847656 1037.605469 1025.1875 1037.605469 C 1016.53125 1037.605469 1009.523438 1030.597656 1009.523438 1021.921875 C 1009.523438 1013.277344 1016.53125 1006.253906 1025.1875 1006.253906 C 1033.847656 1006.253906 1040.871094 1013.277344 1040.871094 1021.921875 " fill-opacity="1" fill-rule="nonzero"/><path fill="#f76f03" d="M 1124.015625 1106.503906 C 1124.015625 1115.164062 1116.992188 1122.1875 1108.351562 1122.1875 C 1099.691406 1122.1875 1092.667969 1115.164062 1092.667969 1106.503906 C 1092.667969 1097.847656 1099.691406 1090.839844 1108.351562 1090.839844 C 1116.992188 1090.839844 1124.015625 1097.847656 1124.015625 1106.503906 " fill-opacity="1" fill-rule="nonzero"/><path fill="#f76f03" d="M 1233.246094 944.304688 C 1233.246094 952.964844 1226.222656 959.988281 1217.578125 959.988281 C 1208.921875 959.988281 1201.898438 952.964844 1201.898438 944.304688 C 1201.898438 935.648438 1208.921875 928.625 1217.578125 928.625 C 1226.222656 928.625 1233.246094 935.648438 1233.246094 944.304688 " fill-opacity="1" fill-rule="nonzero"/><g clip-path="url(#60e6c68963)"><path fill="#f76f03" d="M 1271.707031 751.007812 C 1271.707031 759.667969 1264.699219 766.675781 1256.039062 766.675781 C 1247.382812 766.675781 1240.359375 759.667969 1240.359375 751.007812 C 1240.359375 742.347656 1247.382812 735.324219 1256.039062 735.324219 C 1264.699219 735.324219 1271.707031 742.347656 1271.707031 751.007812 " fill-opacity="1" fill-rule="nonzero"/></g><path fill="#f76f03" d="M 1233.246094 558.457031 C 1233.246094 567.117188 1226.222656 574.140625 1217.578125 574.140625 C 1208.921875 574.140625 1201.898438 567.117188 1201.898438 558.457031 C 1201.898438 549.796875 1208.921875 542.792969 1217.578125 542.792969 C 1226.222656 542.792969 1233.246094 549.796875 1233.246094 558.457031 " fill-opacity="1" fill-rule="nonzero"/><path fill="#f76f03" d="M 1125.546875 396.382812 C 1125.546875 405.042969 1118.523438 412.066406 1109.863281 412.066406 C 1101.203125 412.066406 1094.179688 405.042969 1094.179688 396.382812 C 1094.179688 387.722656 1101.203125 380.71875 1109.863281 380.71875 C 1118.523438 380.71875 1125.546875 387.722656 1125.546875 396.382812 " fill-opacity="1" fill-rule="nonzero"/><path fill="#f76f03" d="M 770.441406 816.496094 C 770.441406 825.15625 763.433594 832.179688 754.773438 832.179688 C 746.117188 832.179688 739.09375 825.15625 739.09375 816.496094 C 739.09375 807.835938 746.117188 800.8125 754.773438 800.8125 C 763.433594 800.8125 770.441406 807.835938 770.441406 816.496094 " fill-opacity="1" fill-rule="nonzero"/><path fill="#f76f03" d="M 698.140625 751.007812 C 698.140625 759.667969 691.117188 766.675781 682.460938 766.675781 C 673.800781 766.675781 666.777344 759.667969 666.777344 751.007812 C 666.777344 742.347656 673.800781 735.324219 682.460938 735.324219 C 691.117188 735.324219 698.140625 742.347656 698.140625 751.007812 " fill-opacity="1" fill-rule="nonzero"/><path fill="#f76f03" d="M 832.65625 751.007812 C 832.65625 759.667969 825.632812 766.675781 816.972656 766.675781 C 808.3125 766.675781 801.308594 759.667969 801.308594 751.007812 C 801.308594 742.347656 808.3125 735.324219 816.972656 735.324219 C 825.632812 735.324219 832.65625 742.347656 832.65625 751.007812 " fill-opacity="1" fill-rule="nonzero"/><path fill="#f76f03" d="M 720.386719 700.9375 C 720.386719 709.597656 713.363281 716.621094 704.703125 716.621094 C 696.0625 716.621094 689.039062 709.597656 689.039062 700.9375 C 689.039062 692.277344 696.0625 685.273438 704.703125 685.273438 C 713.363281 685.273438 720.386719 692.277344 720.386719 700.9375 " fill-opacity="1" fill-rule="nonzero"/><path fill="#f76f03" d="M 816.972656 705.488281 C 816.972656 714.148438 809.949219 721.171875 801.308594 721.171875 C 792.628906 721.171875 785.625 714.148438 785.625 705.488281 C 785.625 696.828125 792.628906 689.824219 801.308594 689.824219 C 809.949219 689.824219 816.972656 696.828125 816.972656 705.488281 " fill-opacity="1" fill-rule="nonzero"/><path fill="#f76f03" d="M 816.972656 796.527344 C 816.972656 805.167969 809.949219 812.191406 801.308594 812.191406 C 792.628906 812.191406 785.625 805.167969 785.625 796.527344 C 785.625 787.851562 792.628906 780.84375 801.308594 780.84375 C 809.949219 780.84375 816.972656 787.851562 816.972656 796.527344 " fill-opacity="1" fill-rule="nonzero"/><path fill="#f76f03" d="M 720.386719 800.8125 C 720.386719 809.472656 713.363281 816.496094 704.703125 816.496094 C 696.0625 816.496094 689.039062 809.472656 689.039062 800.8125 C 689.039062 792.152344 696.0625 785.148438 704.703125 785.148438 C 713.363281 785.148438 720.386719 792.152344 720.386719 800.8125 " fill-opacity="1" fill-rule="nonzero"/><path fill="#f76f03" d="M 707.246094 598.535156 C 707.246094 607.195312 700.222656 614.21875 691.5625 614.21875 C 682.902344 614.21875 675.878906 607.195312 675.878906 598.535156 C 675.878906 589.875 682.902344 582.871094 691.5625 582.871094 C 700.222656 582.871094 707.246094 589.875 707.246094 598.535156 " fill-opacity="1" fill-rule="nonzero"/><path fill="#f76f03" d="M 770.441406 589.699219 C 770.441406 598.359375 763.433594 605.363281 754.773438 605.363281 C 746.117188 605.363281 739.09375 598.359375 739.09375 589.699219 C 739.09375 581.039062 746.117188 574.015625 754.773438 574.015625 C 763.433594 574.015625 770.441406 581.039062 770.441406 589.699219 " fill-opacity="1" fill-rule="nonzero"/><path fill="#f76f03" d="M 832.65625 604.351562 C 832.65625 613.011719 825.632812 620.035156 816.972656 620.035156 C 808.3125 620.035156 801.308594 613.011719 801.308594 604.351562 C 801.308594 595.691406 808.3125 588.683594 816.972656 588.683594 C 825.632812 588.683594 832.65625 595.691406 832.65625 604.351562 " fill-opacity="1" fill-rule="nonzero"/><path fill="#f76f03" d="M 881.199219 638.242188 C 881.199219 646.902344 874.175781 653.925781 865.515625 653.925781 C 856.855469 653.925781 849.851562 646.902344 849.851562 638.242188 C 849.851562 629.582031 856.855469 622.558594 865.515625 622.558594 C 874.175781 622.558594 881.199219 629.582031 881.199219 638.242188 " fill-opacity="1" fill-rule="nonzero"/><path fill="#f76f03" d="M 915.460938 689.824219 C 915.460938 698.484375 908.4375 705.488281 899.777344 705.488281 C 891.121094 705.488281 884.097656 698.484375 884.097656 689.824219 C 884.097656 681.164062 891.121094 674.140625 899.777344 674.140625 C 908.4375 674.140625 915.460938 681.164062 915.460938 689.824219 " fill-opacity="1" fill-rule="nonzero"/><path fill="#f76f03" d="M 927.589844 751.007812 C 927.589844 759.667969 920.582031 766.675781 911.90625 766.675781 C 903.265625 766.675781 896.242188 759.667969 896.242188 751.007812 C 896.242188 742.347656 903.265625 735.324219 911.90625 735.324219 C 920.582031 735.324219 927.589844 742.347656 927.589844 751.007812 " fill-opacity="1" fill-rule="nonzero"/><path fill="#f76f03" d="M 915.460938 812.191406 C 915.460938 820.851562 908.4375 827.875 899.777344 827.875 C 891.121094 827.875 884.097656 820.851562 884.097656 812.191406 C 884.097656 803.535156 891.121094 796.527344 899.777344 796.527344 C 908.4375 796.527344 915.460938 803.535156 915.460938 812.191406 " fill-opacity="1" fill-rule="nonzero"/><path fill="#f76f03" d="M 881.199219 863.777344 C 881.199219 872.433594 874.175781 879.441406 865.515625 879.441406 C 856.855469 879.441406 849.851562 872.433594 849.851562 863.777344 C 849.851562 855.117188 856.855469 848.09375 865.515625 848.09375 C 874.175781 848.09375 881.199219 855.117188 881.199219 863.777344 " fill-opacity="1" fill-rule="nonzero"/><path fill="#f76f03" d="M 829.617188 897.648438 C 829.617188 906.308594 822.589844 913.332031 813.933594 913.332031 C 805.289062 913.332031 798.265625 906.308594 798.265625 897.648438 C 798.265625 888.988281 805.289062 881.984375 813.933594 881.984375 C 822.589844 881.984375 829.617188 888.988281 829.617188 897.648438 " fill-opacity="1" fill-rule="nonzero"/><path fill="#f76f03" d="M 770.441406 913.332031 C 770.441406 921.992188 763.433594 929.015625 754.773438 929.015625 C 746.117188 929.015625 739.09375 921.992188 739.09375 913.332031 C 739.09375 904.671875 746.117188 897.648438 754.773438 897.648438 C 763.433594 897.648438 770.441406 904.671875 770.441406 913.332031 " fill-opacity="1" fill-rule="nonzero"/><path fill="#f76f03" d="M 653.636719 635.714844 C 653.636719 644.375 646.613281 651.382812 637.953125 651.382812 C 629.3125 651.382812 622.289062 644.375 622.289062 635.714844 C 622.289062 627.058594 629.3125 620.035156 637.953125 620.035156 C 646.613281 620.035156 653.636719 627.058594 653.636719 635.714844 " fill-opacity="1" fill-rule="nonzero"/><path fill="#f76f03" d="M 618.554688 688.117188 C 618.554688 696.777344 611.53125 703.78125 602.871094 703.78125 C 594.230469 703.78125 587.207031 696.777344 587.207031 688.117188 C 587.207031 679.457031 594.230469 672.433594 602.871094 672.433594 C 611.53125 672.433594 618.554688 679.457031 618.554688 688.117188 " fill-opacity="1" fill-rule="nonzero"/><path fill="#f76f03" d="M 601.929688 751.007812 C 601.929688 759.667969 594.90625 766.675781 586.246094 766.675781 C 577.585938 766.675781 570.582031 759.667969 570.582031 751.007812 C 570.582031 742.347656 577.585938 735.324219 586.246094 735.324219 C 594.90625 735.324219 601.929688 742.347656 601.929688 751.007812 " fill-opacity="1" fill-rule="nonzero"/><path fill="#f76f03" d="M 618.554688 812.191406 C 618.554688 820.851562 611.53125 827.875 602.871094 827.875 C 594.230469 827.875 587.207031 820.851562 587.207031 812.191406 C 587.207031 803.535156 594.230469 796.527344 602.871094 796.527344 C 611.53125 796.527344 618.554688 803.535156 618.554688 812.191406 " fill-opacity="1" fill-rule="nonzero"/><path fill="#f76f03" d="M 707.246094 901.207031 C 707.246094 909.847656 700.222656 916.871094 691.5625 916.871094 C 682.902344 916.871094 675.878906 909.847656 675.878906 901.207031 C 675.878906 892.527344 682.902344 885.523438 691.5625 885.523438 C 700.222656 885.523438 707.246094 892.527344 707.246094 901.207031 " fill-opacity="1" fill-rule="nonzero"/><path fill="#f76f03" d="M 653.636719 866.300781 C 653.636719 874.960938 646.613281 881.984375 637.953125 881.984375 C 629.3125 881.984375 622.289062 874.960938 622.289062 866.300781 C 622.289062 857.640625 629.3125 850.617188 637.953125 850.617188 C 646.613281 850.617188 653.636719 857.640625 653.636719 866.300781 " fill-opacity="1" fill-rule="nonzero"/></svg>