<svg xmlns="http://www.w3.org/2000/svg" xmlns:xlink="http://www.w3.org/1999/xlink" width="2000" zoomAndPan="magnify" viewBox="0 0 1500 1499.999933" height="2000" preserveAspectRatio="xMidYMid meet" version="1.0"><defs><clipPath id="1d8aef58f6"><path d="M 1168 737 L 1195.175781 737 L 1195.175781 765 L 1168 765 Z M 1168 737 " clip-rule="nonzero"/></clipPath></defs><rect x="-150" width="1800" fill="#ffffff" y="-149.999993" height="1799.99992" fill-opacity="1"/><rect x="-150" width="1800" fill="#ffffff" y="-149.999993" height="1799.99992" fill-opacity="1"/><path fill="#f76f03" d="M 767.449219 692.808594 C 767.449219 700.199219 761.46875 706.179688 754.078125 706.179688 C 746.6875 706.179688 740.691406 700.199219 740.691406 692.808594 C 740.691406 685.417969 746.6875 679.421875 754.078125 679.421875 C 761.46875 679.421875 767.449219 685.417969 767.449219 692.808594 " fill-opacity="1" fill-rule="nonzero"/><path fill="#f76f03" d="M 767.449219 518.96875 C 767.449219 526.34375 761.46875 532.339844 754.078125 532.339844 C 746.6875 532.339844 740.691406 526.34375 740.691406 518.96875 C 740.691406 511.578125 746.6875 505.582031 754.078125 505.582031 C 761.46875 505.582031 767.449219 511.578125 767.449219 518.96875 " fill-opacity="1" fill-rule="nonzero"/><path fill="#f76f03" d="M 678.964844 535.800781 C 678.964844 543.191406 672.984375 549.171875 665.59375 549.171875 C 658.203125 549.171875 652.207031 543.191406 652.207031 535.800781 C 652.207031 528.410156 658.203125 522.414062 665.59375 522.414062 C 672.984375 522.414062 678.964844 528.410156 678.964844 535.800781 " fill-opacity="1" fill-rule="nonzero"/><path fill="#f76f03" d="M 601.605469 585.003906 C 601.605469 592.394531 595.609375 598.390625 588.21875 598.390625 C 580.828125 598.390625 574.832031 592.394531 574.832031 585.003906 C 574.832031 577.613281 580.828125 571.617188 588.21875 571.617188 C 595.609375 571.617188 601.605469 577.613281 601.605469 585.003906 " fill-opacity="1" fill-rule="nonzero"/><path fill="#f76f03" d="M 551.535156 660.96875 C 551.535156 668.359375 545.539062 674.355469 538.148438 674.355469 C 530.757812 674.355469 524.761719 668.359375 524.761719 660.96875 C 524.761719 653.574219 530.757812 647.597656 538.148438 647.597656 C 545.539062 647.597656 551.535156 653.574219 551.535156 660.96875 " fill-opacity="1" fill-rule="nonzero"/><path fill="#f76f03" d="M 532.535156 750.863281 C 532.535156 758.253906 526.539062 764.234375 519.164062 764.234375 C 511.769531 764.234375 505.777344 758.253906 505.777344 750.863281 C 505.777344 743.472656 511.769531 737.476562 519.164062 737.476562 C 526.539062 737.476562 532.535156 743.472656 532.535156 750.863281 " fill-opacity="1" fill-rule="nonzero"/><path fill="#f76f03" d="M 551.535156 839.238281 C 551.535156 846.632812 545.539062 852.609375 538.148438 852.609375 C 530.757812 852.609375 524.761719 846.632812 524.761719 839.238281 C 524.761719 831.847656 530.757812 825.855469 538.148438 825.855469 C 545.539062 825.855469 551.535156 831.847656 551.535156 839.238281 " fill-opacity="1" fill-rule="nonzero"/><path fill="#f76f03" d="M 602.347656 916.175781 C 602.347656 923.566406 596.371094 929.558594 588.976562 929.558594 C 581.585938 929.558594 575.589844 923.566406 575.589844 916.175781 C 575.589844 908.78125 581.585938 902.804688 588.976562 902.804688 C 596.371094 902.804688 602.347656 908.78125 602.347656 916.175781 " fill-opacity="1" fill-rule="nonzero"/><path fill="#f76f03" d="M 677.035156 965.394531 C 677.035156 972.769531 671.042969 978.765625 663.652344 978.765625 C 656.257812 978.765625 650.265625 972.769531 650.265625 965.394531 C 650.265625 957.988281 656.257812 952.007812 663.652344 952.007812 C 671.042969 952.007812 677.035156 957.988281 677.035156 965.394531 " fill-opacity="1" fill-rule="nonzero"/><path fill="#f76f03" d="M 767.449219 982.757812 C 767.449219 990.148438 761.46875 996.144531 754.078125 996.144531 C 746.6875 996.144531 740.691406 990.148438 740.691406 982.757812 C 740.691406 975.367188 746.6875 969.386719 754.078125 969.386719 C 761.46875 969.386719 767.449219 975.367188 767.449219 982.757812 " fill-opacity="1" fill-rule="nonzero"/><path fill="#f76f03" d="M 854.65625 965.394531 C 854.65625 972.769531 848.664062 978.765625 841.269531 978.765625 C 833.878906 978.765625 827.882812 972.769531 827.882812 965.394531 C 827.882812 957.988281 833.878906 952.007812 841.269531 952.007812 C 848.664062 952.007812 854.65625 957.988281 854.65625 965.394531 " fill-opacity="1" fill-rule="nonzero"/><path fill="#f76f03" d="M 893.054688 1055.714844 C 893.054688 1063.105469 887.078125 1069.085938 879.683594 1069.085938 C 872.292969 1069.085938 866.296875 1063.105469 866.296875 1055.714844 C 866.296875 1048.308594 872.292969 1042.328125 879.683594 1042.328125 C 887.078125 1042.328125 893.054688 1048.308594 893.054688 1055.714844 " fill-opacity="1" fill-rule="nonzero"/><path fill="#f76f03" d="M 767.449219 1081.058594 C 767.449219 1088.453125 761.46875 1094.445312 754.078125 1094.445312 C 746.6875 1094.445312 740.691406 1088.453125 740.691406 1081.058594 C 740.691406 1073.683594 746.6875 1067.6875 754.078125 1067.6875 C 761.46875 1067.6875 767.449219 1073.683594 767.449219 1081.058594 " fill-opacity="1" fill-rule="nonzero"/><path fill="#f76f03" d="M 638.609375 1057.761719 C 638.609375 1065.140625 632.628906 1071.132812 625.238281 1071.132812 C 617.84375 1071.132812 611.851562 1065.140625 611.851562 1057.761719 C 611.851562 1050.371094 617.84375 1044.375 625.238281 1044.375 C 632.628906 1044.375 638.609375 1050.371094 638.609375 1057.761719 " fill-opacity="1" fill-rule="nonzero"/><path fill="#f76f03" d="M 767.449219 1181.414062 C 767.449219 1188.804688 761.46875 1194.800781 754.078125 1194.800781 C 746.6875 1194.800781 740.691406 1188.804688 740.691406 1181.414062 C 740.691406 1174.035156 746.6875 1168.042969 754.078125 1168.042969 C 761.46875 1168.042969 767.449219 1174.035156 767.449219 1181.414062 " fill-opacity="1" fill-rule="nonzero"/><path fill="#f76f03" d="M 600.742188 1150.011719 C 600.742188 1157.402344 594.746094 1163.398438 587.355469 1163.398438 C 579.960938 1163.398438 573.96875 1157.402344 573.96875 1150.011719 C 573.96875 1142.636719 579.960938 1136.640625 587.355469 1136.640625 C 594.746094 1136.640625 600.742188 1142.636719 600.742188 1150.011719 " fill-opacity="1" fill-rule="nonzero"/><path fill="#f76f03" d="M 531.457031 986.535156 C 531.457031 993.925781 525.460938 999.921875 518.085938 999.921875 C 510.695312 999.921875 504.699219 993.925781 504.699219 986.535156 C 504.699219 979.144531 510.695312 973.148438 518.085938 973.148438 C 525.460938 973.148438 531.457031 979.144531 531.457031 986.535156 " fill-opacity="1" fill-rule="nonzero"/><path fill="#f76f03" d="M 459.167969 879.066406 C 459.167969 886.441406 453.171875 892.4375 445.78125 892.4375 C 438.390625 892.4375 432.394531 886.441406 432.394531 879.066406 C 432.394531 871.660156 438.390625 865.679688 445.78125 865.679688 C 453.171875 865.679688 459.167969 871.660156 459.167969 879.066406 " fill-opacity="1" fill-rule="nonzero"/><path fill="#f76f03" d="M 365.492188 916.175781 C 365.492188 923.566406 359.496094 929.558594 352.105469 929.558594 C 344.730469 929.558594 338.734375 923.566406 338.734375 916.175781 C 338.734375 908.78125 344.730469 902.804688 352.105469 902.804688 C 359.496094 902.804688 365.492188 908.78125 365.492188 916.175781 " fill-opacity="1" fill-rule="nonzero"/><path fill="#f76f03" d="M 331.828125 750.863281 C 331.828125 758.253906 325.832031 764.234375 318.441406 764.234375 C 311.050781 764.234375 305.070312 758.253906 305.070312 750.863281 C 305.070312 743.472656 311.050781 737.476562 318.441406 737.476562 C 325.832031 737.476562 331.828125 743.472656 331.828125 750.863281 " fill-opacity="1" fill-rule="nonzero"/><path fill="#f76f03" d="M 432.179688 749.785156 C 432.179688 757.175781 426.1875 763.171875 418.792969 763.171875 C 411.417969 763.171875 405.421875 757.175781 405.421875 749.785156 C 405.421875 742.394531 411.417969 736.398438 418.792969 736.398438 C 426.1875 736.398438 432.179688 742.394531 432.179688 749.785156 " fill-opacity="1" fill-rule="nonzero"/><path fill="#f76f03" d="M 459.167969 620.71875 C 459.167969 628.109375 453.171875 634.101562 445.78125 634.101562 C 438.390625 634.101562 432.394531 628.109375 432.394531 620.71875 C 432.394531 613.324219 438.390625 607.34375 445.78125 607.34375 C 453.171875 607.34375 459.167969 613.324219 459.167969 620.71875 " fill-opacity="1" fill-rule="nonzero"/><path fill="#f76f03" d="M 365.066406 582.742188 C 365.066406 590.132812 359.070312 596.113281 351.679688 596.113281 C 344.289062 596.113281 338.292969 590.132812 338.292969 582.742188 C 338.292969 575.351562 344.289062 569.355469 351.679688 569.355469 C 359.070312 569.355469 365.066406 575.351562 365.066406 582.742188 " fill-opacity="1" fill-rule="nonzero"/><path fill="#f76f03" d="M 459.167969 442.882812 C 459.167969 450.277344 453.171875 456.269531 445.78125 456.269531 C 438.390625 456.269531 432.394531 450.277344 432.394531 442.882812 C 432.394531 435.492188 438.390625 429.511719 445.78125 429.511719 C 453.171875 429.511719 459.167969 435.492188 459.167969 442.882812 " fill-opacity="1" fill-rule="nonzero"/><path fill="#f76f03" d="M 529.953125 514.109375 C 529.953125 521.503906 523.957031 527.484375 516.566406 527.484375 C 509.175781 527.484375 503.179688 521.503906 503.179688 514.109375 C 503.179688 506.71875 509.175781 500.726562 516.566406 500.726562 C 523.957031 500.726562 529.953125 506.71875 529.953125 514.109375 " fill-opacity="1" fill-rule="nonzero"/><path fill="#f76f03" d="M 640.992188 442.882812 C 640.992188 450.277344 634.996094 456.269531 627.605469 456.269531 C 620.214844 456.269531 614.234375 450.277344 614.234375 442.882812 C 614.234375 435.492188 620.214844 429.511719 627.605469 429.511719 C 634.996094 429.511719 640.992188 435.492188 640.992188 442.882812 " fill-opacity="1" fill-rule="nonzero"/><path fill="#f76f03" d="M 601.605469 349.648438 C 601.605469 357.042969 595.609375 363.035156 588.21875 363.035156 C 580.828125 363.035156 574.832031 357.042969 574.832031 349.648438 C 574.832031 342.257812 580.828125 336.277344 588.21875 336.277344 C 595.609375 336.277344 601.605469 342.257812 601.605469 349.648438 " fill-opacity="1" fill-rule="nonzero"/><path fill="#f76f03" d="M 767.449219 318.582031 C 767.449219 325.957031 761.46875 331.953125 754.078125 331.953125 C 746.6875 331.953125 740.691406 325.957031 740.691406 318.582031 C 740.691406 311.191406 746.6875 305.195312 754.078125 305.195312 C 761.46875 305.195312 767.449219 311.191406 767.449219 318.582031 " fill-opacity="1" fill-rule="nonzero"/><path fill="#f76f03" d="M 932.773438 354.277344 C 932.773438 361.671875 926.78125 367.664062 919.402344 367.664062 C 911.996094 367.664062 906.015625 361.671875 906.015625 354.277344 C 906.015625 346.886719 911.996094 340.90625 919.402344 340.90625 C 926.78125 340.90625 932.773438 346.886719 932.773438 354.277344 " fill-opacity="1" fill-rule="nonzero"/><path fill="#f76f03" d="M 767.449219 418.765625 C 767.449219 426.160156 761.46875 432.152344 754.078125 432.152344 C 746.6875 432.152344 740.691406 426.160156 740.691406 418.765625 C 740.691406 411.375 746.6875 405.378906 754.078125 405.378906 C 761.46875 405.378906 767.449219 411.375 767.449219 418.765625 " fill-opacity="1" fill-rule="nonzero"/><path fill="#f76f03" d="M 460.882812 1057.761719 C 460.882812 1065.140625 454.886719 1071.132812 447.511719 1071.132812 C 440.117188 1071.132812 434.125 1065.140625 434.125 1057.761719 C 434.125 1050.371094 440.117188 1044.375 447.511719 1044.375 C 454.886719 1044.375 460.882812 1050.371094 460.882812 1057.761719 " fill-opacity="1" fill-rule="nonzero"/><path fill="#f76f03" d="M 931.273438 1149.265625 C 931.273438 1156.660156 925.277344 1162.640625 917.886719 1162.640625 C 910.496094 1162.640625 904.5 1156.660156 904.5 1149.265625 C 904.5 1141.875 910.496094 1135.882812 917.886719 1135.882812 C 925.277344 1135.882812 931.273438 1141.875 931.273438 1149.265625 " fill-opacity="1" fill-rule="nonzero"/><path fill="#f76f03" d="M 928.359375 911.863281 C 928.359375 919.253906 922.363281 925.25 914.972656 925.25 C 907.582031 925.25 901.585938 919.253906 901.585938 911.863281 C 901.585938 904.472656 907.582031 898.476562 914.972656 898.476562 C 922.363281 898.476562 928.359375 904.472656 928.359375 911.863281 " fill-opacity="1" fill-rule="nonzero"/><path fill="#f76f03" d="M 979.292969 839.238281 C 979.292969 846.632812 973.296875 852.609375 965.90625 852.609375 C 958.515625 852.609375 952.519531 846.632812 952.519531 839.238281 C 952.519531 831.847656 958.515625 825.855469 965.90625 825.855469 C 973.296875 825.855469 979.292969 831.847656 979.292969 839.238281 " fill-opacity="1" fill-rule="nonzero"/><path fill="#f76f03" d="M 995.046875 750.863281 C 995.046875 758.253906 989.050781 764.234375 981.660156 764.234375 C 974.269531 764.234375 968.273438 758.253906 968.273438 750.863281 C 968.273438 743.472656 974.269531 737.476562 981.660156 737.476562 C 989.050781 737.476562 995.046875 743.472656 995.046875 750.863281 " fill-opacity="1" fill-rule="nonzero"/><path fill="#f76f03" d="M 977.777344 663.457031 C 977.777344 670.847656 971.78125 676.84375 964.390625 676.84375 C 957 676.84375 951.019531 670.847656 951.019531 663.457031 C 951.019531 656.066406 957 650.070312 964.390625 650.070312 C 971.78125 650.070312 977.777344 656.066406 977.777344 663.457031 " fill-opacity="1" fill-rule="nonzero"/><path fill="#f76f03" d="M 928.570312 588.785156 C 928.570312 596.175781 922.574219 602.15625 915.183594 602.15625 C 907.792969 602.15625 901.796875 596.175781 901.796875 588.785156 C 901.796875 581.390625 907.792969 575.398438 915.183594 575.398438 C 922.574219 575.398438 928.570312 581.390625 928.570312 588.785156 " fill-opacity="1" fill-rule="nonzero"/><path fill="#f76f03" d="M 856.054688 538.484375 C 856.054688 545.878906 850.058594 551.871094 842.667969 551.871094 C 835.277344 551.871094 829.28125 545.878906 829.28125 538.484375 C 829.28125 531.109375 835.277344 525.113281 842.667969 525.113281 C 850.058594 525.113281 856.054688 531.109375 856.054688 538.484375 " fill-opacity="1" fill-rule="nonzero"/><path fill="#f76f03" d="M 894.027344 446.117188 C 894.027344 453.507812 888.046875 459.503906 880.65625 459.503906 C 873.265625 459.503906 867.269531 453.507812 867.269531 446.117188 C 867.269531 438.742188 873.265625 432.746094 880.65625 432.746094 C 888.046875 432.746094 894.027344 438.742188 894.027344 446.117188 " fill-opacity="1" fill-rule="nonzero"/><path fill="#f76f03" d="M 999.328125 518.96875 C 999.328125 526.34375 993.332031 532.339844 985.957031 532.339844 C 978.550781 532.339844 972.570312 526.34375 972.570312 518.96875 C 972.570312 511.578125 978.550781 505.582031 985.957031 505.582031 C 993.332031 505.582031 999.328125 511.578125 999.328125 518.96875 " fill-opacity="1" fill-rule="nonzero"/><path fill="#f76f03" d="M 1069.25 625.679688 C 1069.25 633.070312 1063.253906 639.066406 1055.878906 639.066406 C 1048.488281 639.066406 1042.492188 633.070312 1042.492188 625.679688 C 1042.492188 618.289062 1048.488281 612.308594 1055.878906 612.308594 C 1063.253906 612.308594 1069.25 618.289062 1069.25 625.679688 " fill-opacity="1" fill-rule="nonzero"/><path fill="#f76f03" d="M 1094.960938 750.863281 C 1094.960938 758.253906 1088.964844 764.234375 1081.589844 764.234375 C 1074.199219 764.234375 1068.203125 758.253906 1068.203125 750.863281 C 1068.203125 743.472656 1074.199219 737.476562 1081.589844 737.476562 C 1088.964844 737.476562 1094.960938 743.472656 1094.960938 750.863281 " fill-opacity="1" fill-rule="nonzero"/><path fill="#f76f03" d="M 1069.25 876.03125 C 1069.25 883.421875 1063.253906 889.417969 1055.878906 889.417969 C 1048.488281 889.417969 1042.492188 883.421875 1042.492188 876.03125 C 1042.492188 868.636719 1048.488281 862.660156 1055.878906 862.660156 C 1063.253906 862.660156 1069.25 868.636719 1069.25 876.03125 " fill-opacity="1" fill-rule="nonzero"/><path fill="#f76f03" d="M 998.28125 982.105469 C 998.28125 989.511719 992.285156 995.492188 984.894531 995.492188 C 977.503906 995.492188 971.523438 989.511719 971.523438 982.105469 C 971.523438 974.726562 977.503906 968.734375 984.894531 968.734375 C 992.285156 968.734375 998.28125 974.726562 998.28125 982.105469 " fill-opacity="1" fill-rule="nonzero"/><path fill="#f76f03" d="M 1069.25 1054.304688 C 1069.25 1061.695312 1063.253906 1067.6875 1055.878906 1067.6875 C 1048.488281 1067.6875 1042.492188 1061.695312 1042.492188 1054.304688 C 1042.492188 1046.910156 1048.488281 1040.933594 1055.878906 1040.933594 C 1063.253906 1040.933594 1069.25 1046.910156 1069.25 1054.304688 " fill-opacity="1" fill-rule="nonzero"/><path fill="#f76f03" d="M 1162.484375 915.855469 C 1162.484375 923.246094 1156.488281 929.242188 1149.113281 929.242188 C 1141.722656 929.242188 1135.726562 923.246094 1135.726562 915.855469 C 1135.726562 908.464844 1141.722656 902.46875 1149.113281 902.46875 C 1156.488281 902.46875 1162.484375 908.464844 1162.484375 915.855469 " fill-opacity="1" fill-rule="nonzero"/><g clip-path="url(#1d8aef58f6)"><path fill="#f76f03" d="M 1195.3125 750.863281 C 1195.3125 758.253906 1189.332031 764.234375 1181.941406 764.234375 C 1174.550781 764.234375 1168.554688 758.253906 1168.554688 750.863281 C 1168.554688 743.472656 1174.550781 737.476562 1181.941406 737.476562 C 1189.332031 737.476562 1195.3125 743.472656 1195.3125 750.863281 " fill-opacity="1" fill-rule="nonzero"/></g><path fill="#f76f03" d="M 1162.484375 586.507812 C 1162.484375 593.898438 1156.488281 599.894531 1149.113281 599.894531 C 1141.722656 599.894531 1135.726562 593.898438 1135.726562 586.507812 C 1135.726562 579.117188 1141.722656 573.136719 1149.113281 573.136719 C 1156.488281 573.136719 1162.484375 579.117188 1162.484375 586.507812 " fill-opacity="1" fill-rule="nonzero"/><path fill="#f76f03" d="M 1070.554688 448.164062 C 1070.554688 455.558594 1064.558594 461.550781 1057.167969 461.550781 C 1049.777344 461.550781 1043.78125 455.558594 1043.78125 448.164062 C 1043.78125 440.773438 1049.777344 434.792969 1057.167969 434.792969 C 1064.558594 434.792969 1070.554688 440.773438 1070.554688 448.164062 " fill-opacity="1" fill-rule="nonzero"/><path fill="#f76f03" d="M 767.449219 806.761719 C 767.449219 814.152344 761.46875 820.148438 754.078125 820.148438 C 746.6875 820.148438 740.691406 814.152344 740.691406 806.761719 C 740.691406 799.371094 746.6875 793.375 754.078125 793.375 C 761.46875 793.375 767.449219 799.371094 767.449219 806.761719 " fill-opacity="1" fill-rule="nonzero"/><path fill="#f76f03" d="M 705.738281 750.863281 C 705.738281 758.253906 699.742188 764.234375 692.351562 764.234375 C 684.960938 764.234375 678.964844 758.253906 678.964844 750.863281 C 678.964844 743.472656 684.960938 737.476562 692.351562 737.476562 C 699.742188 737.476562 705.738281 743.472656 705.738281 750.863281 " fill-opacity="1" fill-rule="nonzero"/><path fill="#f76f03" d="M 820.554688 750.863281 C 820.554688 758.253906 814.558594 764.234375 807.167969 764.234375 C 799.777344 764.234375 793.796875 758.253906 793.796875 750.863281 C 793.796875 743.472656 799.777344 737.476562 807.167969 737.476562 C 814.558594 737.476562 820.554688 743.472656 820.554688 750.863281 " fill-opacity="1" fill-rule="nonzero"/><path fill="#f76f03" d="M 724.722656 708.125 C 724.722656 715.515625 718.730469 721.507812 711.335938 721.507812 C 703.960938 721.507812 697.964844 715.515625 697.964844 708.125 C 697.964844 700.730469 703.960938 694.75 711.335938 694.75 C 718.730469 694.75 724.722656 700.730469 724.722656 708.125 " fill-opacity="1" fill-rule="nonzero"/><path fill="#f76f03" d="M 807.167969 712.007812 C 807.167969 719.398438 801.171875 725.394531 793.796875 725.394531 C 786.390625 725.394531 780.410156 719.398438 780.410156 712.007812 C 780.410156 704.617188 786.390625 698.636719 793.796875 698.636719 C 801.171875 698.636719 807.167969 704.617188 807.167969 712.007812 " fill-opacity="1" fill-rule="nonzero"/><path fill="#f76f03" d="M 807.167969 789.714844 C 807.167969 797.09375 801.171875 803.085938 793.796875 803.085938 C 786.390625 803.085938 780.410156 797.09375 780.410156 789.714844 C 780.410156 782.308594 786.390625 776.328125 793.796875 776.328125 C 801.171875 776.328125 807.167969 782.308594 807.167969 789.714844 " fill-opacity="1" fill-rule="nonzero"/><path fill="#f76f03" d="M 724.722656 793.375 C 724.722656 800.765625 718.730469 806.761719 711.335938 806.761719 C 703.960938 806.761719 697.964844 800.765625 697.964844 793.375 C 697.964844 785.984375 703.960938 780.003906 711.335938 780.003906 C 718.730469 780.003906 724.722656 785.984375 724.722656 793.375 " fill-opacity="1" fill-rule="nonzero"/><path fill="#f76f03" d="M 713.507812 620.71875 C 713.507812 628.109375 707.511719 634.101562 700.121094 634.101562 C 692.730469 634.101562 686.734375 628.109375 686.734375 620.71875 C 686.734375 613.324219 692.730469 607.34375 700.121094 607.34375 C 707.511719 607.34375 713.507812 613.324219 713.507812 620.71875 " fill-opacity="1" fill-rule="nonzero"/><path fill="#f76f03" d="M 767.449219 613.171875 C 767.449219 620.566406 761.46875 626.546875 754.078125 626.546875 C 746.6875 626.546875 740.691406 620.566406 740.691406 613.171875 C 740.691406 605.78125 746.6875 599.789062 754.078125 599.789062 C 761.46875 599.789062 767.449219 605.78125 767.449219 613.171875 " fill-opacity="1" fill-rule="nonzero"/><path fill="#f76f03" d="M 820.554688 625.679688 C 820.554688 633.070312 814.558594 639.066406 807.167969 639.066406 C 799.777344 639.066406 793.796875 633.070312 793.796875 625.679688 C 793.796875 618.289062 799.777344 612.308594 807.167969 612.308594 C 814.558594 612.308594 820.554688 618.289062 820.554688 625.679688 " fill-opacity="1" fill-rule="nonzero"/><path fill="#f76f03" d="M 861.988281 654.609375 C 861.988281 662 855.992188 667.996094 848.601562 667.996094 C 841.210938 667.996094 835.230469 662 835.230469 654.609375 C 835.230469 647.214844 841.210938 641.222656 848.601562 641.222656 C 855.992188 641.222656 861.988281 647.214844 861.988281 654.609375 " fill-opacity="1" fill-rule="nonzero"/><path fill="#f76f03" d="M 891.234375 698.636719 C 891.234375 706.027344 885.238281 712.007812 877.847656 712.007812 C 870.457031 712.007812 864.460938 706.027344 864.460938 698.636719 C 864.460938 691.246094 870.457031 685.25 877.847656 685.25 C 885.238281 685.25 891.234375 691.246094 891.234375 698.636719 " fill-opacity="1" fill-rule="nonzero"/><path fill="#f76f03" d="M 901.585938 750.863281 C 901.585938 758.253906 895.605469 764.234375 888.199219 764.234375 C 880.824219 764.234375 874.828125 758.253906 874.828125 750.863281 C 874.828125 743.472656 880.824219 737.476562 888.199219 737.476562 C 895.605469 737.476562 901.585938 743.472656 901.585938 750.863281 " fill-opacity="1" fill-rule="nonzero"/><path fill="#f76f03" d="M 891.234375 803.085938 C 891.234375 810.480469 885.238281 816.472656 877.847656 816.472656 C 870.457031 816.472656 864.460938 810.480469 864.460938 803.085938 C 864.460938 795.695312 870.457031 789.714844 877.847656 789.714844 C 885.238281 789.714844 891.234375 795.695312 891.234375 803.085938 " fill-opacity="1" fill-rule="nonzero"/><path fill="#f76f03" d="M 861.988281 847.117188 C 861.988281 854.507812 855.992188 860.488281 848.601562 860.488281 C 841.210938 860.488281 835.230469 854.507812 835.230469 847.117188 C 835.230469 839.726562 841.210938 833.730469 848.601562 833.730469 C 855.992188 833.730469 861.988281 839.726562 861.988281 847.117188 " fill-opacity="1" fill-rule="nonzero"/><path fill="#f76f03" d="M 817.957031 876.03125 C 817.957031 883.421875 811.964844 889.417969 804.570312 889.417969 C 797.195312 889.417969 791.199219 883.421875 791.199219 876.03125 C 791.199219 868.636719 797.195312 862.660156 804.570312 862.660156 C 811.964844 862.660156 817.957031 868.636719 817.957031 876.03125 " fill-opacity="1" fill-rule="nonzero"/><path fill="#f76f03" d="M 767.449219 889.417969 C 767.449219 896.808594 761.46875 902.804688 754.078125 902.804688 C 746.6875 902.804688 740.691406 896.808594 740.691406 889.417969 C 740.691406 882.023438 746.6875 876.03125 754.078125 876.03125 C 761.46875 876.03125 767.449219 882.023438 767.449219 889.417969 " fill-opacity="1" fill-rule="nonzero"/><path fill="#f76f03" d="M 667.75 652.453125 C 667.75 659.84375 661.753906 665.824219 654.363281 665.824219 C 646.984375 665.824219 640.992188 659.84375 640.992188 652.453125 C 640.992188 645.0625 646.984375 639.066406 654.363281 639.066406 C 661.753906 639.066406 667.75 645.0625 667.75 652.453125 " fill-opacity="1" fill-rule="nonzero"/><path fill="#f76f03" d="M 637.804688 697.179688 C 637.804688 704.570312 631.808594 710.550781 624.417969 710.550781 C 617.042969 710.550781 611.046875 704.570312 611.046875 697.179688 C 611.046875 689.789062 617.042969 683.792969 624.417969 683.792969 C 631.808594 683.792969 637.804688 689.789062 637.804688 697.179688 " fill-opacity="1" fill-rule="nonzero"/><path fill="#f76f03" d="M 623.613281 750.863281 C 623.613281 758.253906 617.617188 764.234375 610.226562 764.234375 C 602.835938 764.234375 596.855469 758.253906 596.855469 750.863281 C 596.855469 743.472656 602.835938 737.476562 610.226562 737.476562 C 617.617188 737.476562 623.613281 743.472656 623.613281 750.863281 " fill-opacity="1" fill-rule="nonzero"/><path fill="#f76f03" d="M 637.804688 803.085938 C 637.804688 810.480469 631.808594 816.472656 624.417969 816.472656 C 617.042969 816.472656 611.046875 810.480469 611.046875 803.085938 C 611.046875 795.695312 617.042969 789.714844 624.417969 789.714844 C 631.808594 789.714844 637.804688 795.695312 637.804688 803.085938 " fill-opacity="1" fill-rule="nonzero"/><path fill="#f76f03" d="M 713.507812 879.066406 C 713.507812 886.441406 707.511719 892.4375 700.121094 892.4375 C 692.730469 892.4375 686.734375 886.441406 686.734375 879.066406 C 686.734375 871.660156 692.730469 865.679688 700.121094 865.679688 C 707.511719 865.679688 713.507812 871.660156 713.507812 879.066406 " fill-opacity="1" fill-rule="nonzero"/><path fill="#f76f03" d="M 667.75 849.273438 C 667.75 856.664062 661.753906 862.660156 654.363281 862.660156 C 646.984375 862.660156 640.992188 856.664062 640.992188 849.273438 C 640.992188 841.882812 646.984375 835.886719 654.363281 835.886719 C 661.753906 835.886719 667.75 841.882812 667.75 849.273438 " fill-opacity="1" fill-rule="nonzero"/></svg>